<svg xmlns="http://www.w3.org/2000/svg" xmlns:xlink="http://www.w3.org/1999/xlink">
  <defs>
    <symbol viewBox="0 0 21 21" id="Chrome">
      <path d="M6.25 10.575C6.25 11.675 6.64167 12.6167 7.425 13.4C8.20833 14.1833 9.15 14.575 10.25 14.575C11.35 14.575 12.2917 14.1833 13.075 13.4C13.8583 12.6167 14.25 11.675 14.25 10.575C14.25 9.475 13.8583 8.53333 13.075 7.75C12.2917 6.96667 11.35 6.575 10.25 6.575C9.15 6.575 8.20833 6.96667 7.425 7.75C6.64167 8.53333 6.25 9.475 6.25 10.575ZM10.25 16.575C10.4667 16.575 10.675 16.5667 10.875 16.55C11.075 16.5333 11.275 16.5 11.475 16.45L9.125 20.5C6.60833 20.2167 4.5 19.1417 2.8 17.275C1.1 15.3917 0.25 13.1583 0.25 10.575C0.25 9.875 0.316667 9.2 0.45 8.55C0.583333 7.88333 0.783334 7.25 1.05 6.65L5.05 13.575C5.56667 14.475 6.28333 15.2 7.2 15.75C8.11667 16.3 9.13333 16.575 10.25 16.575ZM10.25 4.575C8.91667 4.575 7.73333 4.96667 6.7 5.75C5.66667 6.51667 4.95 7.5 4.55 8.7L2.2 4.65C3.11667 3.41667 4.26667 2.43333 5.65 1.7C7.05 0.949998 8.58333 0.574998 10.25 0.574998C11.9 0.574998 13.4167 0.941665 14.8 1.675C16.1833 2.39167 17.3333 3.35833 18.25 4.575H10.25ZM19.4 6.575C19.6833 7.19167 19.8917 7.83333 20.025 8.5C20.175 9.16667 20.25 9.85833 20.25 10.575C20.25 13.1583 19.4 15.3833 17.7 17.25C16.0167 19.1167 13.9333 20.2 11.45 20.5L15.45 13.575C15.7 13.1417 15.8917 12.675 16.025 12.175C16.175 11.6583 16.25 11.125 16.25 10.575C16.25 9.79167 16.1083 9.06667 15.825 8.4C15.5583 7.71667 15.1833 7.10833 14.7 6.575H19.4Z" fill="currentColor"/>
    </symbol>
    <symbol viewBox="0 0 127.14 96.36" id="Discord">
      <path fill="currentColor" d="M107.7,8.07A105.15,105.15,0,0,0,81.47,0a72.06,72.06,0,0,0-3.36,6.83A97.68,97.68,0,0,0,49,6.83,72.37,72.37,0,0,0,45.64,0,105.89,105.89,0,0,0,19.39,8.09C2.79,32.65-1.71,56.6.54,80.21h0A105.73,105.73,0,0,0,32.71,96.36,77.7,77.7,0,0,0,39.6,85.25a68.42,68.42,0,0,1-10.85-5.18c.91-.66,1.8-1.34,2.66-2a75.57,75.57,0,0,0,64.32,0c.87.71,1.76,1.39,2.66,2a68.68,68.68,0,0,1-10.87,5.19,77,77,0,0,0,6.89,11.1A105.25,105.25,0,0,0,126.6,80.22h0C129.24,52.84,122.09,29.11,107.7,8.07ZM42.45,65.69C36.18,65.69,31,60,31,53s5-12.74,11.43-12.74S54,46,53.89,53,48.84,65.69,42.45,65.69Zm42.24,0C78.41,65.69,73.25,60,73.25,53s5-12.74,11.44-12.74S96.23,46,96.12,53,91.08,65.69,84.69,65.69Z"/>
    </symbol>
    <symbol viewBox="0 0 205 179" id="Reddit">
      <path fill="currentColor" d="m205,89.4c0-16.51-13.39-29.9-29.9-29.9-6.84,0-13.13,2.3-18.17,6.16-13.73-8.52-31.07-13.87-50.04-14.58,0-.03.01-.05.01-.08,0-12.74,9.49-23.29,21.78-24.96,2.19,9.37,10.58,16.36,20.62,16.36,11.71,0,21.2-9.49,21.2-21.2S161.01,0,149.3,0c-10.19,0-18.7,7.19-20.73,16.78-17.34,1.77-30.87,16.41-30.87,34.22,0,.04.02.07.02.11-18.79.8-35.96,6.15-49.56,14.62-5.05-3.9-11.38-6.23-18.26-6.23-16.51,0-29.9,13.39-29.9,29.9,0,12.03,7.11,22.39,17.35,27.14,1.09,34.63,38.83,62.46,85.25,62.46s84.22-27.88,85.25-62.55c10.13-4.79,17.15-15.1,17.15-27.05Z"/>
    </symbol>
    <symbol viewBox="0 0 21 21" id="Fitbit">
      <path d="M18.125 12.4C17.5917 12.4 17.1417 12.2167 16.775 11.85C16.425 11.4833 16.25 11.0333 16.25 10.5C16.25 9.96667 16.425 9.51667 16.775 9.15C17.1417 8.78333 17.5917 8.6 18.125 8.6C18.6583 8.6 19.1083 8.78333 19.475 9.15C19.8417 9.51667 20.025 9.96667 20.025 10.5C20.025 11.0333 19.8417 11.4833 19.475 11.85C19.1083 12.2167 18.6583 12.4 18.125 12.4ZM13.9 12.175C13.4333 12.175 13.0333 12.0167 12.7 11.7C12.3667 11.3667 12.2 10.9667 12.2 10.5C12.2 10.0333 12.3667 9.64167 12.7 9.325C13.0333 8.99167 13.4333 8.825 13.9 8.825C14.3667 8.825 14.7583 8.99167 15.075 9.325C15.4083 9.64167 15.575 10.0333 15.575 10.5C15.575 10.9667 15.4083 11.3667 15.075 11.7C14.7583 12.0167 14.3667 12.175 13.9 12.175ZM13.9 7.925C13.4333 7.925 13.0333 7.76667 12.7 7.45C12.3667 7.11667 12.2 6.71667 12.2 6.25C12.2 5.78333 12.3667 5.38333 12.7 5.05C13.0333 4.71667 13.4333 4.55 13.9 4.55C14.3667 4.55 14.7583 4.71667 15.075 5.05C15.4083 5.38333 15.575 5.78333 15.575 6.25C15.575 6.71667 15.4083 7.11667 15.075 7.45C14.7583 7.76667 14.3667 7.925 13.9 7.925ZM13.9 16.425C13.4333 16.425 13.0333 16.2667 12.7 15.95C12.3667 15.6167 12.2 15.2167 12.2 14.75C12.2 14.2833 12.3667 13.8917 12.7 13.575C13.0333 13.2417 13.4333 13.075 13.9 13.075C14.3667 13.075 14.7583 13.2417 15.075 13.575C15.4083 13.8917 15.575 14.2833 15.575 14.75C15.575 15.2167 15.4083 15.6167 15.075 15.95C14.7583 16.2667 14.3667 16.425 13.9 16.425ZM9.65 11.975C9.25 11.975 8.9 11.8333 8.6 11.55C8.31667 11.25 8.175 10.9 8.175 10.5C8.175 10.1 8.31667 9.75833 8.6 9.475C8.9 9.175 9.25 9.025 9.65 9.025C10.05 9.025 10.3917 9.175 10.675 9.475C10.9583 9.75833 11.1 10.1 11.1 10.5C11.1 10.9 10.9583 11.25 10.675 11.55C10.3917 11.8333 10.05 11.975 9.65 11.975ZM9.65 7.7C9.25 7.7 8.9 7.55833 8.6 7.275C8.31667 6.99167 8.175 6.65 8.175 6.25C8.175 5.85 8.31667 5.50833 8.6 5.225C8.9 4.925 9.25 4.775 9.65 4.775C10.05 4.775 10.3917 4.925 10.675 5.225C10.9583 5.50833 11.1 5.85 11.1 6.25C11.1 6.65 10.9583 6.99167 10.675 7.275C10.3917 7.55833 10.05 7.7 9.65 7.7ZM9.65 16.225C9.25 16.225 8.9 16.0833 8.6 15.8C8.31667 15.5 8.175 15.15 8.175 14.75C8.175 14.35 8.31667 14.0083 8.6 13.725C8.9 13.4417 9.25 13.3 9.65 13.3C10.05 13.3 10.3917 13.4417 10.675 13.725C10.9583 14.0083 11.1 14.35 11.1 14.75C11.1 15.15 10.9583 15.5 10.675 15.8C10.3917 16.0833 10.05 16.225 9.65 16.225ZM9.65 20.5C9.25 20.5 8.9 20.3583 8.6 20.075C8.31667 19.775 8.175 19.425 8.175 19.025C8.175 18.625 8.31667 18.2833 8.6 18C8.9 17.7 9.25 17.55 9.65 17.55C10.05 17.55 10.3917 17.7 10.675 18C10.9583 18.2833 11.1 18.625 11.1 19.025C11.1 19.425 10.9583 19.775 10.675 20.075C10.3917 20.3583 10.05 20.5 9.65 20.5ZM9.65 3.45C9.25 3.45 8.9 3.30833 8.6 3.025C8.31667 2.725 8.175 2.375 8.175 1.975C8.175 1.575 8.31667 1.23333 8.6 0.949998C8.9 0.649999 9.25 0.5 9.65 0.5C10.05 0.5 10.3917 0.649999 10.675 0.949998C10.9583 1.23333 11.1 1.575 11.1 1.975C11.1 2.375 10.9583 2.725 10.675 3.025C10.3917 3.30833 10.05 3.45 9.65 3.45ZM5.4 11.75C5.05 11.75 4.75 11.6333 4.5 11.4C4.26667 11.15 4.15 10.85 4.15 10.5C4.15 10.15 4.26667 9.85833 4.5 9.625C4.75 9.375 5.05 9.25 5.4 9.25C5.75 9.25 6.04167 9.375 6.275 9.625C6.525 9.85833 6.65 10.15 6.65 10.5C6.65 10.85 6.525 11.15 6.275 11.4C6.04167 11.6333 5.75 11.75 5.4 11.75ZM5.4 16C5.05 16 4.75 15.8833 4.5 15.65C4.26667 15.4 4.15 15.1 4.15 14.75C4.15 14.4 4.26667 14.1083 4.5 13.875C4.75 13.625 5.05 13.5 5.4 13.5C5.75 13.5 6.04167 13.625 6.275 13.875C6.525 14.1083 6.65 14.4 6.65 14.75C6.65 15.1 6.525 15.4 6.275 15.65C6.04167 15.8833 5.75 16 5.4 16ZM5.4 7.525C5.05 7.525 4.75 7.4 4.5 7.15C4.26667 6.9 4.15 6.6 4.15 6.25C4.15 5.9 4.26667 5.60833 4.5 5.375C4.75 5.125 5.05 5 5.4 5C5.75 5 6.04167 5.125 6.275 5.375C6.525 5.60833 6.65 5.9 6.65 6.25C6.65 6.6 6.525 6.9 6.275 7.15C6.04167 7.4 5.75 7.525 5.4 7.525ZM1.525 11.55C1.24167 11.55 0.991667 11.45 0.775 11.25C0.575 11.0333 0.475 10.7833 0.475 10.5C0.475 10.2167 0.575 9.975 0.775 9.775C0.991667 9.55833 1.24167 9.45 1.525 9.45C1.80833 9.45 2.05 9.55833 2.25 9.775C2.46667 9.975 2.575 10.2167 2.575 10.5C2.575 10.7833 2.46667 11.0333 2.25 11.25C2.05 11.45 1.80833 11.55 1.525 11.55Z" fill="currentColor"/>
    </symbol>
    <symbol viewBox="0 0 77 25" id="Google">
      <path d="M18.8309 8.87304C18.9124 9.42359 18.9475 9.96316 18.9475 10.4719C18.9475 12.4594 18.4092 14.9198 16.6776 16.6712C14.9927 18.4458 12.8398 19.3918 9.98485 19.3918C4.6962 19.3922 0.25 15.0385 0.25 9.69105C0.25 4.34356 4.6962 0 9.98485 0C12.91 0 14.9927 1.15941 16.5605 2.67374L14.7119 4.543C13.5886 3.47823 12.0675 2.6505 9.98485 2.6505C6.12367 2.6505 3.10493 5.78733 3.10493 9.69105C3.10493 13.5948 6.12367 16.7422 9.98485 16.7422C12.4888 16.7422 13.9162 15.7247 14.8289 14.8019C15.5681 14.0545 16.0566 12.9842 16.2488 11.5227H10.0701V8.87262L18.8309 8.87304Z" fill="currentColor"/>
      <path d="M32.5666 13.1451C32.5666 16.7416 29.7819 19.3913 26.3653 19.3913C22.9488 19.3913 20.1641 16.7416 20.1641 13.1451C20.1641 9.52486 22.9488 6.89844 26.3653 6.89844C29.7819 6.89844 32.5666 9.52486 32.5666 13.1451ZM29.8521 13.1451C29.8521 10.8972 28.2374 9.35923 26.3653 9.35923C24.4933 9.35923 22.8786 10.8972 22.8786 13.1451C22.8786 15.3692 24.4933 16.9309 26.3653 16.9309C28.2374 16.9309 29.8521 15.3692 29.8521 13.1451Z" fill="currentColor"/>
      <path d="M45.9016 13.1451C45.9016 16.7416 43.134 19.3913 39.7379 19.3913C36.3418 19.3913 33.5742 16.7416 33.5742 13.1451C33.5742 9.52486 36.3422 6.89844 39.7379 6.89844C43.1336 6.89844 45.9016 9.52486 45.9016 13.1451ZM43.2038 13.1451C43.2038 10.8972 41.5987 9.35923 39.7379 9.35923C37.8771 9.35923 36.2724 10.8972 36.2724 13.1451C36.2724 15.3692 37.8771 16.9309 39.7379 16.9309C41.5987 16.9309 43.2038 15.3692 43.2038 13.1451Z" fill="currentColor"/>
      <path d="M58.755 7.27744V18.493C58.755 23.1069 56.0639 24.9999 52.8813 24.9999C49.886 24.9999 48.0841 22.965 47.4055 21.3087L49.769 20.3149C50.1902 21.3319 51.2199 22.5391 52.8813 22.5391C54.9172 22.5391 56.1809 21.2614 56.1809 18.8715V17.9724H56.0873C55.4789 18.7296 54.3088 19.3917 52.8345 19.3917C49.7456 19.3917 46.9141 16.671 46.9141 13.1687C46.9141 9.64316 49.7456 6.89844 52.8345 6.89844C54.3088 6.89844 55.4789 7.56054 56.0873 8.29446H56.1809V7.27702H58.755V7.27744ZM56.3681 13.1691C56.3681 10.9686 54.9172 9.35965 53.0685 9.35965C51.1965 9.35965 49.6286 10.9686 49.6286 13.1691C49.6286 15.3456 51.1965 16.9313 53.0685 16.9313C54.9172 16.9313 56.3681 15.3456 56.3681 13.1691Z" fill="currentColor"/>
      <path d="M63.4255 0.845703V19.0143H60.7109V0.845703H63.4255Z" fill="currentColor"/>
      <path d="M74.0287 15.2032L76.1348 16.6229C75.4562 17.6403 73.8181 19.3913 70.9865 19.3913C67.4768 19.3913 64.8555 16.6465 64.8555 13.1451C64.8555 9.43021 67.4998 6.89844 70.6823 6.89844C73.8883 6.89844 75.4562 9.47753 75.971 10.8736L76.2518 11.5834L67.9908 15.038C68.623 16.292 69.6055 16.9309 70.9861 16.9309C72.3668 16.9309 73.3267 16.2447 74.0283 15.2032H74.0287ZM67.5466 12.9558L73.0692 10.6369C72.7646 9.85612 71.8524 9.31191 70.7759 9.31191C69.3953 9.31191 67.4764 10.5423 67.5466 12.9558Z" fill="currentColor"/>
    </symbol>
    <symbol viewBox="0 0 329 320" id="Labs">   
      <path fill="currentColor" d="M327.616 265.105c-.89-3.406-2.371-6.442-4.447-9.112L222.264 104.442c-2.962-4.147-5.187-8.742-6.668-13.78-1.481-5.036-2.222-10.072-2.222-15.109v-48.89h8.89c3.852 0 7.038-1.26 9.559-3.776 2.521-2.52 3.777-5.702 3.777-9.553 0-3.851-1.26-7.037-3.777-9.558C229.306 1.256 226.12 0 222.264 0H106.687c-3.852 0-7.038 1.26-9.555 3.776-2.52 2.52-3.777 5.703-3.777 9.558 0 3.855 1.26 7.037 3.777 9.553 2.52 2.52 5.703 3.777 9.555 3.777h8.89v48.89c0 5.036-.741 10.072-2.222 15.109-1.481 5.037-3.706 9.628-6.668 13.779L5.337 255.997a36.299 36.299 0 0 0-4.002 9.557C.445 268.961 0 272.741 0 276.888c0 11.853 4.222 22.001 12.67 30.444C21.116 315.775 31.566 320 44.01 320h241.82c12.151 0 22.376-4.147 30.671-12.444 8.299-8.297 12.446-18.52 12.446-30.664 0-4.446-.445-8.373-1.335-11.779l.004-.008Zm-92.681-90.667c-.446 1.036-1.261 1.706-2.446 2.001-10.371 2.075-20.671 5.702-30.895 10.888-10.225 5.187-25.558 14.445-46.008 27.778-15.408 10.369-27.264 17.335-35.563 20.887-8.298 3.556-16.593 5.332-24.892 5.332-7.409 0-13.734-2.418-18.67-7.557-6.297-6.56-11.67-17.953-3.556-30.223l56.453-84.886c4.148-6.518 7.334-13.409 9.555-20.667 2.222-7.257 3.333-14.74 3.333-22.442V26.66h44.452v48.89c0 7.998 1.11 15.705 3.332 23.112 2.221 7.407 5.557 14.224 10 20.446l34.672 52c.591 1.185.666 2.296.221 3.331h.012Z"/>
    </symbol>
    <symbol viewBox="0 0 25 25" id="NestLabs">
      <path d="M12.25 4.5C7.98 4.5 4.25 7.93 4.25 12.5C4.25 14.35 4.88 16.05 5.94 17.4L4.55 18.79C4.16 19.18 4.16 19.81 4.55 20.2C4.94 20.59 5.57 20.59 5.96 20.2L7.35 18.81C8.7 19.87 10.4 20.5 12.25 20.5C14.3 20.5 16.34 19.72 17.91 18.16C19.47 16.59 20.25 14.55 20.25 12.5V4.5H12.25ZM18.25 12.5C18.25 14.1 17.63 15.61 16.49 16.74C15.36 17.88 13.85 18.5 12.25 18.5C10.96 18.5 9.76 18.08 8.78 17.39L14.46 11.71C14.85 11.32 14.85 10.69 14.46 10.3C14.07 9.91 13.44 9.91 13.05 10.3L7.37 15.98C6.67 14.99 6.25 13.79 6.25 12.5C6.25 10.87 6.89 9.35 8.05 8.22C9.17 7.13 10.7 6.5 12.25 6.5H18.25V12.5Z" fill="currentColor"/>
    </symbol>
    <symbol viewBox="0 0 25 25" id="PhotoLabs">
      <path d="M21.8 11.5H17.17C18.12 10.44 18.71 9.04 18.71 7.5C18.71 4.19 16.02 1.5 12.71 1.5C11.9 1.5 11.25 2.15 11.25 2.95V7.58C10.19 6.63 8.79 6.05 7.25 6.05C3.94 6.05 1.25 8.74 1.25 12.05C1.25 12.85 1.9 13.5 2.71 13.5H7.34C6.39 14.56 5.8 15.96 5.8 17.5C5.8 20.81 8.49 23.5 11.8 23.5C12.6 23.5 13.25 22.85 13.25 22.05V17.42C14.31 18.37 15.71 18.96 17.25 18.96C20.56 18.96 23.25 16.27 23.25 12.96C23.25 12.15 22.6 11.5 21.8 11.5ZM13.25 3.54C15.2 3.8 16.71 5.48 16.71 7.5C16.71 9.52 15.2 11.2 13.26 11.46V3.54H13.25ZM7.25 8.05C9.27 8.05 10.95 9.56 11.21 11.5H3.29C3.55 9.55 5.23 8.05 7.25 8.05ZM11.25 21.46C9.3 21.2 7.8 19.52 7.8 17.5C7.8 15.48 9.31 13.8 11.25 13.54V21.46ZM17.25 16.95C15.23 16.95 13.55 15.44 13.29 13.5H21.22C20.95 15.45 19.27 16.95 17.25 16.95Z" fill="currentColor"/>
    </symbol>
    <symbol viewBox="0 0 25 25" id="SearchLabs">
      <path d="M12.4492 22.5C11.0659 22.5 9.76588 22.2417 8.54922 21.725C7.33255 21.1917 6.27422 20.475 5.37422 19.575C4.47422 18.675 3.75755 17.6167 3.22422 16.4C2.70755 15.1833 2.44922 13.8833 2.44922 12.5C2.44922 11.1167 2.70755 9.81667 3.22422 8.6C3.75755 7.38333 4.47422 6.325 5.37422 5.425C6.27422 4.525 7.33255 3.81667 8.54922 3.3C9.76588 2.76667 11.0659 2.5 12.4492 2.5C13.7159 2.5 14.9076 2.725 16.0242 3.175C17.1576 3.60833 18.1992 4.25 19.1492 5.1L16.2992 7.875C15.7826 7.39167 15.1909 7.025 14.5242 6.775C13.8742 6.50833 13.1826 6.375 12.4492 6.375C10.7826 6.375 9.36588 6.975 8.19922 8.175C7.03255 9.35833 6.44922 10.8 6.44922 12.5C6.44922 14.2 7.03255 15.65 8.19922 16.85C9.36588 18.0333 10.7826 18.625 12.4492 18.625C13.8659 18.625 15.0826 18.2333 16.0992 17.45C17.1326 16.65 17.7492 15.6333 17.9492 14.4H12.4492V10.675H21.7992C21.8826 11.0583 21.9409 11.4083 21.9742 11.725C22.0242 12.025 22.0492 12.3583 22.0492 12.725C22.0492 15.6417 21.1659 18 19.3992 19.8C17.6326 21.6 15.3159 22.5 12.4492 22.5Z" fill="currentColor"/>
    </symbol>
    <symbol viewBox="0 0 25 25" id="Twitter">
      <path d="m14.12,11.19l6.39-7.28h-1.51l-5.55,6.32-4.43-6.32H3.91l6.7,9.55-6.7,7.63h1.51l5.86-6.67,4.68,6.67h5.11M5.97,5.03h2.33l10.71,15h-2.33" fill="currentColor" />
    </symbol>
    <symbol viewBox="0 0 25 25" id="WorkspaceLabs">
      <path fill-rule="evenodd" clip-rule="evenodd" d="M5.25 3.5H19.25C20.35 3.5 21.25 4.4 21.25 5.5V19.5C21.25 20.6 20.35 21.5 19.25 21.5H5.25C4.15 21.5 3.25 20.6 3.25 19.5V5.5C3.25 4.4 4.15 3.5 5.25 3.5ZM7.25 9.5H17.26V7.5H7.25V9.5ZM17.26 13.5H7.25V11.5H17.26V13.5ZM7.25 17.5H14.26V15.5H7.25V17.5Z" fill="currentColor"/>
    </symbol>
    <symbol viewBox="0 0 25 25" id="SmileyFace">
        <path d="M17.1631 10.5635C17.5744 10.5635 17.917 10.4264 18.1912 10.1523C18.4882 9.85529 18.6367 9.50118 18.6367 9.08996C18.6367 8.67873 18.4882 8.32462 18.1912 8.02763C17.8942 7.73064 17.5401 7.58214 17.1289 7.58214C16.7176 7.58214 16.3635 7.73064 16.0665 8.02763C15.7924 8.32462 15.6553 8.67873 15.6553 9.08996C15.6553 9.50118 15.8038 9.85529 16.1008 10.1523C16.3978 10.4264 16.7519 10.5635 17.1631 10.5635ZM8.01343 10.5635C8.42465 10.5635 8.76734 10.4264 9.04149 10.1523C9.33848 9.85529 9.48698 9.50118 9.48698 9.08996C9.48698 8.67873 9.33848 8.32462 9.04149 8.02763C8.74449 7.73064 8.39038 7.58214 7.97916 7.58214C7.56794 7.58214 7.21383 7.73064 6.91684 8.02763C6.64269 8.32462 6.50561 8.67873 6.50561 9.08996C6.50561 9.50118 6.65411 9.85529 6.9511 10.1523C7.2481 10.4264 7.60221 10.5635 8.01343 10.5635ZM12.5711 19.2335C13.8734 19.2335 15.0728 18.8793 16.1694 18.1711C17.2659 17.4629 18.0884 16.5148 18.6367 15.3268H17.3688C16.8661 16.195 16.1922 16.8803 15.3469 17.383C14.5016 17.8627 13.5764 18.1026 12.5711 18.1026C11.5659 18.1026 10.6407 17.8627 9.7954 17.383C8.9501 16.8803 8.27616 16.195 7.77355 15.3268H6.50561C7.05391 16.5148 7.87636 17.4629 8.97295 18.1711C10.0695 18.8793 11.2689 19.2335 12.5711 19.2335ZM12.5711 24.8878C10.8577 24.8878 9.2471 24.5679 7.73928 23.9283C6.25431 23.2657 4.9521 22.3862 3.83266 21.2896C2.73607 20.1701 1.85651 18.8679 1.19398 17.383C0.554302 15.8751 0.234462 14.2645 0.234462 12.5511C0.234462 10.8377 0.554302 9.23845 1.19398 7.75348C1.85651 6.24566 2.73607 4.94346 3.83266 3.84686C4.9521 2.72742 6.25431 1.84786 7.73928 1.20818C9.2471 0.545656 10.8577 0.214393 12.5711 0.214393C14.2846 0.214393 15.8838 0.545656 17.3688 1.20818C18.8766 1.84786 20.1788 2.72742 21.2754 3.84686C22.3948 4.94346 23.2744 6.24566 23.9141 7.75348C24.5766 9.23845 24.9078 10.8377 24.9078 12.5511C24.9078 14.2645 24.5766 15.8751 23.9141 17.383C23.2744 18.8679 22.3948 20.1701 21.2754 21.2896C20.1788 22.3862 18.8766 23.2657 17.3688 23.9283C15.8838 24.5679 14.2846 24.8878 12.5711 24.8878ZM12.5711 23.6198C15.6553 23.6198 18.2712 22.5461 20.4187 20.3986C22.5662 18.2511 23.6399 15.6353 23.6399 12.5511C23.6399 9.46691 22.5662 6.85107 20.4187 4.70358C18.2712 2.55608 15.6553 1.48233 12.5711 1.48233C9.48698 1.48233 6.87114 2.55608 4.72365 4.70358C2.57615 6.85107 1.5024 9.46691 1.5024 12.5511C1.5024 15.6353 2.57615 18.2511 4.72365 20.3986C6.87114 22.5461 9.48698 23.6198 12.5711 23.6198Z" fill="currentColor"/>
    </symbol>
    <symbol viewBox="0 0 19 18" id="SocialComments">
      <path d="M10.9902 0.384766H7.32925C3.46488 0.384766 0.414062 3.38826 0.414062 7.1927C0.414062 10.7969 3.26149 13.5001 7.02417 13.6002V16.9041C7.02417 17.0042 7.02416 17.1043 7.12585 17.3045C7.22755 17.5048 7.43094 17.6049 7.73602 17.6049C7.83772 17.6049 7.93941 17.6049 8.14279 17.5048C8.34618 17.4046 13.8377 13.9005 15.3631 12.6991C17.0919 11.2975 18.0071 9.19504 18.1088 7.1927C17.9054 3.38826 14.9563 0.384766 10.9902 0.384766ZM14.3461 11.698C13.3292 12.4989 10.075 14.7015 8.34619 15.7026V12.8994C8.34619 12.4989 8.0411 12.1985 7.63432 12.1985C7.53263 12.1985 7.32925 12.1985 7.32925 12.1985C4.07505 12.1985 1.73609 9.99597 1.73609 7.09258C1.73609 3.98896 4.17674 1.58615 7.32925 1.58615H10.9902C14.1427 1.58615 16.5834 3.98896 16.5834 7.09258C16.5834 8.89468 15.7698 10.4966 14.3461 11.698Z" fill="#607481" stroke="#607481" stroke-width="0.114897" stroke-miterlimit="10"/>
    </symbol>
    <symbol viewBox="0 0 25 16"  id="SocialShares">
      <path d="M23.8041 10.7003C23.499 10.3999 23.0922 10.3999 22.8888 10.7003L20.6515 12.9029V3.39177C20.6515 1.58966 19.1261 0.0878906 17.2957 0.0878906H11.3974C10.9906 0.0878906 10.6855 0.388254 10.6855 0.788721C10.6855 1.18919 10.9906 1.48955 11.3974 1.48955H17.2957C18.4143 1.48955 19.3295 2.3906 19.3295 3.49189V13.003L17.0923 10.8004C16.7872 10.5001 16.3804 10.5001 16.177 10.8004C15.9736 11.1008 15.8719 11.5012 16.177 11.7015L19.5329 15.0053C19.6346 15.1055 19.838 15.2056 20.0414 15.2056C20.2448 15.2056 20.3465 15.1055 20.5498 15.0053L23.9058 11.7015C24.0075 11.301 24.0075 10.9005 23.8041 10.7003Z" fill="#607481" stroke="#607481" stroke-width="0.114897" stroke-miterlimit="10"/>
      <path d="M13.5338 14.0008H7.63555C6.51692 14.0008 5.60167 13.0998 5.60167 11.9985V2.48737L7.83892 4.68992C7.94061 4.79004 8.144 4.89017 8.34739 4.89017C8.55078 4.89017 8.65247 4.79004 8.85586 4.68992C9.16094 4.38957 9.16094 3.98911 8.85586 3.78887L5.49997 0.485029C5.19489 0.184678 4.78812 0.184678 4.58473 0.485029L1.22881 3.78887C0.92373 4.08923 0.92373 4.48969 1.22881 4.68992C1.53389 4.99027 1.94068 4.99027 2.14407 4.68992L4.38133 2.48737V11.9985C4.38133 13.8006 5.90673 15.3023 7.73722 15.3023H13.6355C14.0423 15.3023 14.3473 15.002 14.3473 14.6015C14.3473 14.201 13.9406 14.0008 13.5338 14.0008Z" fill="#607481" stroke="#607481" stroke-width="0.114897" stroke-miterlimit="10"/>
    </symbol>
    <symbol viewBox="0 0 19 17" id="SocialLikes">
      <path d="M9.94909 16.6033C7.61013 16.6033 1 10.6964 1 5.08983C1 2.38667 3.23728 0.0839844 5.77963 0.0839844C7.81351 0.0839844 9.13554 1.48565 9.94909 2.48681C10.6609 1.48565 12.0847 0.0839844 14.0168 0.0839844C16.5592 0.0839844 18.7964 2.38667 18.7964 5.08983C18.8981 10.5963 12.288 16.5032 9.94909 16.6033ZM5.88133 1.38552C4.05084 1.38552 2.42374 3.08749 2.42374 5.08983C2.42374 10.0957 8.62707 15.2017 10.0508 15.3018C11.3728 15.2017 17.6778 10.0957 17.6778 5.08983C17.6778 3.08749 16.0507 1.38552 14.2202 1.38552C11.9829 1.38552 10.7626 3.98857 10.7626 3.98857C10.5592 4.48915 9.74571 4.48915 9.54232 3.98857C9.33893 3.88845 8.1186 1.38552 5.88133 1.38552Z" fill="#607481" stroke="#607481" stroke-width="0.114897" stroke-miterlimit="10"/>
    </symbol>
    <symbol viewBox="0 0 14 17" id="SocialViews">
      <path d="M5.27164 16.3043V0.585938" stroke="#607481" stroke-width="0.804278" stroke-miterlimit="10"/>
      <path d="M9.13477 16.3083V10.2012" stroke="#607481" stroke-width="0.804278" stroke-miterlimit="10"/>
      <path d="M13.5078 16.3039V5.29102" stroke="#607481" stroke-width="0.804278" stroke-miterlimit="10"/>
      <path d="M1 16.4041V7.59375" stroke="#607481" stroke-width="0.804278" stroke-miterlimit="10"/>
    </symbol>
    <symbol viewBox="0 0 19 17" id="SocialShare">
      <path d="M14.2216 4.78674L9.95042 0.581816C9.74703 0.381582 9.34023 0.381582 9.03515 0.581816L4.76399 4.78674C4.5606 4.98697 4.5606 5.38743 4.76399 5.68778C4.96738 5.88802 5.37418 5.88802 5.67926 5.68778L8.83175 2.58415V11.0941C8.83175 11.3944 9.13687 11.6948 9.44195 11.6948C9.74703 11.6948 10.0521 11.3944 10.0521 11.0941V2.58415L13.2046 5.68778C13.3063 5.7879 13.5097 5.88803 13.6114 5.88803C13.8148 5.88803 13.9165 5.7879 14.0182 5.68778C14.425 5.48755 14.425 5.08709 14.2216 4.78674Z" fill="#607481" stroke="#607481" stroke-width="0.114897" stroke-miterlimit="10"/>
      <path d="M16.0507 16.9018H2.93215C1.81351 16.9018 1 16.0007 1 14.9996V10.2941C1 9.99372 1.30506 9.69336 1.61014 9.69336C1.91522 9.69336 2.22028 9.99372 2.22028 10.2941V14.9996C2.22028 15.4 2.52537 15.7004 2.93215 15.7004H16.0507C16.4575 15.7004 16.7626 15.4 16.7626 14.9996V10.2941C16.7626 9.99372 17.0676 9.69336 17.3727 9.69336C17.6778 9.69336 17.9828 9.99372 17.9828 10.2941V14.9996C17.9828 16.1009 17.1693 16.9018 16.0507 16.9018Z" fill="#607481" stroke="#607481" stroke-width="0.114897" stroke-miterlimit="10"/>
    </symbol>
    <symbol viewBox="0 0 23 23" id="SocialX" preserveAspectRatio="xMinYMid">
      <path d="M13.1251 9.90665L21.3351 0.384766H19.3896L12.2608 8.65248L6.56706 0.384766H0L8.61006 12.887L0 22.8722H1.94563L9.47382 14.1412L15.4868 22.8722H22.0539L13.1251 9.90665ZM10.4602 12.9972L9.58787 11.7522L2.64667 1.84609H5.63504L11.2367 9.84066L12.1091 11.0856L19.3905 21.4773H16.4021L10.4602 12.9972Z" fill="currentColor"/>
    </symbol>
    <symbol viewBox="0 0 11 11" id="AngledArrow">
      <path
        d="M1.02194 10.154L0.321937 9.454L8.27394 1.516L6.77594 0.0179992H10.4579V3.7L8.97394 2.216L1.02194 10.154Z"
        fill="currentColor"
      />
    </symbol>
    <symbol viewBox="0 0 17 6" id="Arrow">
      <path
        d="M16.5 2.91699L11.5 0.0302408V5.80374L16.5 2.91699ZM0.5 3.41699H12V2.41699H0.5V3.41699Z"
        fill="currentColor"
      />
    </symbol>
    <symbol viewBox="0 0 201 201" id="Globe">
      <circle cx="100.471" cy="99.8577" r="99.7796" />
      <path
        d="M165.453 100.199C165.453 127.71 158.112 152.593 146.27 170.584C134.425 188.578 118.119 199.627 100.177 199.627C82.2363 199.627 65.9298 188.578 54.0851 170.584C42.2431 152.593 34.9023 127.71 34.9023 100.199C34.9023 72.6885 42.2431 47.8052 54.0851 29.8145C65.9298 11.8197 82.2363 0.771484 100.177 0.771484C118.119 0.771484 134.425 11.8197 146.27 29.8145C158.112 47.8052 165.453 72.6885 165.453 100.199Z"
        stroke="currentColor"
      />
      <path
        d="M123.71 100.199C123.71 127.765 120.952 152.705 116.5 170.739C114.274 179.759 111.63 187.024 108.714 192.022C105.777 197.055 102.661 199.627 99.5446 199.627C96.428 199.627 93.3125 197.055 90.3754 192.022C87.4589 187.024 84.8154 179.759 82.5887 170.739C78.1374 152.705 75.3789 127.765 75.3789 100.199C75.3789 72.633 78.1374 47.6932 82.5887 29.6594C84.8154 20.6386 87.4589 13.3738 90.3754 8.3763C93.3125 3.34348 96.428 0.771484 99.5446 0.771484C102.661 0.771484 105.777 3.34348 108.714 8.3763C111.63 13.3738 114.274 20.6386 116.5 29.6594C120.952 47.6932 123.71 72.633 123.71 100.199Z"
        stroke="currentColor"
      />
      <line
        x1="0.25"
        y1="99.6992"
        x2="200.105"
        y2="99.6992"
        stroke="currentColor"
      />
      <line
        x1="16.6953"
        y1="47.8379"
        x2="184.928"
        y2="47.8379"
        stroke="currentColor"
      />
      <line
        x1="16.6953"
        y1="152.826"
        x2="184.928"
        y2="152.826"
        stroke="currentColor"
      />
    </symbol>
    <symbol viewBox="0 0 136 136" id="Polygon">
      <path d="M11.8649 30.6747C13.0545 26.6014 15.8135 23.1675 19.5349 21.1283L54.3101 2.07371C58.0315 0.0345997 62.4105 -0.442666 66.4839 0.746913L104.547 11.863C108.621 13.0526 112.055 15.8116 114.094 19.533L133.148 54.3082C135.187 58.0296 135.665 62.4086 134.475 66.4819L123.359 104.545C122.169 108.619 119.41 112.053 115.689 114.092L80.9138 133.146C77.1924 135.185 72.8133 135.663 68.74 134.473L30.6766 123.357C26.6033 122.167 23.1694 119.408 21.1302 115.687L2.07562 80.9119C0.036508 77.1905 -0.440755 72.8114 0.748822 68.7381L11.8649 30.6747Z" fill="currentColor" />
    </symbol>
    <symbol viewBox="0 0 36 36" id="ArrowDown">
      <path fill="currentColor" d="M0,18a18,18 0 1,0 36,0a18,18 0 1,0 -36,0 M18 24L12 18L13.4 16.6L17 20.2V11H19V20.2L22.6 16.6L24 18L18 24Z" fill-rule="even-odd" />
    </symbol>
    <symbol viewBox="0 0 233.04 233.04" id="Disc">
      <path stroke="currentColor" stroke-width="1px" d="m58.52,16.06h0C114-15.97,184.95,3.04,216.98,58.52h0c32.03,55.48,13.02,126.43-42.46,158.46h0c-55.48,32.03-126.43,13.02-158.46-42.46h0C-15.97,119.04,3.04,48.09,58.52,16.06Z"/>
      <path stroke="currentColor" stroke-width="1px" d="m103.27,93.57h0c12.67-7.32,28.88-2.98,36.2,9.7h0c7.32,12.67,2.98,28.88-9.7,36.2h0c-12.67,7.32-28.88,2.98-36.2-9.7h0c-7.32-12.67-2.98-28.88,9.7-36.2Z"/>
      <path stroke="currentColor" stroke-width="1px" d="m111.77,108.29h0c4.54-2.62,10.35-1.07,12.98,3.48h0c2.62,4.54,1.07,10.35-3.48,12.98h0c-4.54,2.62-10.35,1.07-12.98-3.48h0c-2.62-4.54-1.07-10.35,3.48-12.98Z"/>
      <line stroke="currentColor" stroke-width="1px" x1="93.14" y1="130.02" x2="16.06" y2="174.52"/>
      <line stroke="currentColor" stroke-width="1px" x1="216.98" y1="58.52" x2="139.9" y2="103.02"/>
    </symbol>
    <symbol viewBox="0 0 25 25" id="Skip">
      <g clip-path="url(#clip0_1457_3933)">
        <path d="M16.7827 18.2852V6.28515H18.7827V18.2852H16.7827ZM5.78271 18.2852V6.28515L14.7827 12.2852L5.78271 18.2852ZM7.78272 14.5352L11.1827 12.2852L7.78272 10.0352V14.5352Z" fill="currentColor"/>
      </g>
      <defs>
        <clipPath id="clip0_1457_3933">
          <rect width="24" height="24" fill="white" transform="translate(0.282715 0.285156)"/>
        </clipPath>
      </defs>
    </symbol>
    <symbol viewBox="0 0 25 25" id="Play">
      <g clip-path="url(#clip0_1457_3912)">
        <path d="M8.28272 19.2852V5.28516L19.2827 12.2852L8.28272 19.2852ZM10.2827 15.6352L15.5327 12.2852L10.2827 8.93516V15.6352Z" fill="currentColor"/>
      </g>
      <defs>
        <clipPath id="clip0_1457_3912">
          <rect width="24" height="24" fill="white" transform="translate(0.282715 0.285156)"/>
        </clipPath>
      </defs>
    </symbol>
    <symbol viewBox="0 0 25 25" id="Pause">
      <g clip-path="url(#clip0_1457_3931)">
        <path d="M13.2827 19.2852V5.28516H19.2827V19.2852H13.2827ZM5.28272 19.2852V5.28516H11.2827V19.2852H5.28272ZM15.2827 17.2852H17.2827V7.28516H15.2827V17.2852ZM7.28272 17.2852H9.28272V7.28516H7.28272V17.2852ZM7.28272 7.28516V17.2852V7.28516ZM15.2827 7.28516V17.2852V7.28516Z" fill="currentColor"/>
      </g>
      <defs>
        <clipPath id="clip0_1457_3931">
          <rect width="24" height="24" fill="white" transform="translate(0.282715 0.285156)"/>
        </clipPath>
      </defs>
    </symbol>
    <symbol viewBox="0 0 25 25" id="Info">
      <g clip-path="url(#clip0_1457_3916)">
        <path d="M11.2826 17.2852H13.2826V11.2852H11.2826V17.2852ZM12.2826 9.28515C12.5659 9.28515 12.7993 9.19349 12.9826 9.01016C13.1826 8.81016 13.2826 8.56849 13.2826 8.28516C13.2826 8.00182 13.1826 7.76849 12.9826 7.58516C12.7993 7.38516 12.5659 7.28516 12.2826 7.28516C11.9993 7.28516 11.7576 7.38516 11.5576 7.58516C11.3743 7.76849 11.2826 8.00182 11.2826 8.28516C11.2826 8.56849 11.3743 8.81016 11.5576 9.01016C11.7576 9.19349 11.9993 9.28515 12.2826 9.28515ZM12.2826 22.2852C10.8993 22.2852 9.59926 22.0268 8.38259 21.5102C7.16593 20.9768 6.10759 20.2602 5.20759 19.3602C4.30759 18.4602 3.59093 17.4018 3.05759 16.1852C2.54093 14.9685 2.28259 13.6685 2.28259 12.2852C2.28259 10.9018 2.54093 9.60182 3.05759 8.38516C3.59093 7.16849 4.30759 6.11016 5.20759 5.21016C6.10759 4.31015 7.16593 3.60182 8.38259 3.08516C9.59926 2.55182 10.8993 2.28516 12.2826 2.28516C13.6659 2.28516 14.9659 2.55182 16.1826 3.08516C17.3993 3.60182 18.4576 4.31015 19.3576 5.21016C20.2576 6.11016 20.9659 7.16849 21.4826 8.38516C22.0159 9.60182 22.2826 10.9018 22.2826 12.2852C22.2826 13.6685 22.0159 14.9685 21.4826 16.1852C20.9659 17.4018 20.2576 18.4602 19.3576 19.3602C18.4576 20.2602 17.3993 20.9768 16.1826 21.5102C14.9659 22.0268 13.6659 22.2852 12.2826 22.2852ZM12.2826 20.2852C14.5159 20.2852 16.4076 19.5102 17.9576 17.9602C19.5076 16.4102 20.2826 14.5185 20.2826 12.2852C20.2826 10.0518 19.5076 8.16016 17.9576 6.61016C16.4076 5.06016 14.5159 4.28516 12.2826 4.28516C10.0493 4.28516 8.15759 5.06016 6.60759 6.61016C5.05759 8.16016 4.28259 10.0518 4.28259 12.2852C4.28259 14.5185 5.05759 16.4102 6.60759 17.9602C8.15759 19.5102 10.0493 20.2852 12.2826 20.2852Z" fill="currentColor"/>
      </g>
      <defs>
        <clipPath id="clip0_1457_3916">
          <rect width="24" height="24" fill="white" transform="translate(0.282593 0.285156)"/>
        </clipPath>
      </defs>
    </symbol>

    <svg viewBox="0 0 158 201" id="Search">
      <path d="M115.26 84.0399C115.26 78.2299 114.16 72.76 111.95 67.65C109.74 62.54 106.75 58.0899 102.97 54.3099C99.1902 50.5299 94.7404 47.53 89.6304 45.33C84.5204 43.12 79.0502 42.02 73.2402 42.02C79.0502 42.02 84.5204 40.92 89.6304 38.71C94.7404 36.5 99.1902 33.51 102.97 29.73C106.75 25.95 109.75 21.5 111.95 16.39C114.15 11.28 115.26 5.81 115.26 0C115.26 5.81 116.36 11.28 118.57 16.39C120.78 21.5 123.77 25.95 127.55 29.73C131.33 33.51 135.78 36.51 140.89 38.71C146 40.92 151.47 42.02 157.28 42.02C151.47 42.02 146 43.12 140.89 45.33C135.78 47.54 131.33 50.5299 127.55 54.3099C123.77 58.0899 120.77 62.54 118.57 67.65C116.36 72.76 115.26 78.2299 115.26 84.0399Z" fill="currentColor"/>
      <path d="M134.31 200.41L83.3398 149.44C79.2898 152.68 74.6399 155.24 69.3799 157.13C64.1199 159.02 58.5298 159.96 52.5898 159.96C37.8898 159.96 25.45 154.87 15.27 144.69C5.09002 134.51 0 122.07 0 107.37C0 92.67 5.09002 80.2299 15.27 70.0499C25.45 59.8699 37.8898 54.78 52.5898 54.78C67.2898 54.78 79.7297 59.8699 89.9097 70.0499C100.09 80.2299 105.18 92.67 105.18 107.37C105.18 113.3 104.24 118.9 102.35 124.16C100.46 129.42 97.8997 134.07 94.6597 138.12L145.63 189.09L134.3 200.42L134.31 200.41ZM52.5996 143.78C62.7096 143.78 71.3096 140.24 78.3896 133.16C85.4697 126.08 89.0098 117.48 89.0098 107.37C89.0098 97.26 85.4697 88.66 78.3896 81.58C71.3096 74.5 62.7096 70.96 52.5996 70.96C42.4896 70.96 33.8896 74.5 26.8096 81.58C19.7296 88.66 16.1899 97.26 16.1899 107.37C16.1899 117.48 19.7296 126.08 26.8096 133.16C33.8896 140.24 42.4896 143.78 52.5996 143.78Z" fill="currentColor"/>
    </svg>
    <svg viewBox="0 0 172 128" id="ImageFX">
      <path d="M129.005 8.99587C129.005 4.02757 133.016 0 137.963 0L163.043 0C167.99 0 172 4.02757 172 8.99587V34.1844C172 39.1527 167.99 43.1803 163.043 43.1803L137.963 43.1803C133.016 43.1803 129.005 39.1527 129.005 34.1844V8.99587Z" fill="currentColor"/>
      <path d="M85.9861 52.1833C85.9861 47.215 89.9964 43.1873 94.9433 43.1873H120.024C124.97 43.1873 128.981 47.215 128.981 52.1833V77.3717C128.981 82.34 124.97 86.3676 120.024 86.3676H94.9433C89.9964 86.3676 85.9861 82.34 85.9861 77.3717L85.9861 52.1833Z" fill="currentColor"/>
      <path d="M43.0193 8.99587C43.0193 4.02757 47.0296 0 51.9765 0L77.0567 0C82.0036 0 86.014 4.02757 86.014 8.99587V34.1844C86.014 39.1527 82.0036 43.1803 77.0567 43.1803H51.9765C47.0296 43.1803 43.0193 39.1527 43.0193 34.1844L43.0193 8.99587Z" fill="currentColor"/>
      <path d="M0 52.1833C0 47.215 4.01028 43.1873 8.95723 43.1873L34.0374 43.1873C38.9844 43.1873 42.9947 47.215 42.9947 52.1833V77.3717C42.9947 82.34 38.9844 86.3676 34.0374 86.3676H8.95723C4.01028 86.3676 0 82.34 0 77.3717L0 52.1833Z" fill="currentColor"/>
      <path d="M43.0193 93.8157C43.0193 88.8474 47.0296 84.8197 51.9765 84.8197L77.0567 84.8197C82.0036 84.8197 86.014 88.8474 86.014 93.8157V119.004C86.014 123.972 82.0036 128 77.0567 128H51.9765C47.0296 128 43.0193 123.972 43.0193 119.004V93.8157Z" fill="currentColor"/>
      <path d="M129.005 93.8157C129.005 88.8474 133.016 84.8197 137.963 84.8197H163.043C167.99 84.8197 172 88.8474 172 93.8157L172 119.004C172 123.972 167.99 128 163.043 128H137.963C133.016 128 129.005 123.972 129.005 119.004L129.005 93.8157Z" fill="currentColor"/>
    </svg>
    <svg viewBox="0 0 181 210" id="NotebookLM">
      <path d="M148.298 63.6473C148.298 54.7707 151.384 47.2514 157.555 41.0803C163.726 34.9092 171.245 31.8236 180.122 31.8236C171.245 31.8236 163.726 28.7381 157.555 22.567C151.384 16.3959 148.298 8.8766 148.298 0C148.298 8.8766 145.213 16.3959 139.042 22.567C132.871 28.7381 125.351 31.8236 116.475 31.8236C125.351 31.8236 132.871 34.9092 139.042 41.0803C145.213 47.2514 148.298 54.7707 148.298 63.6473Z" fill="currentColor"/>
      <path fill-rule="evenodd" clip-rule="evenodd" d="M128.774 63.9638C128.774 56.2273 123.073 49.9296 116.07 49.9296H27.3307C20.3271 49.9296 14.6266 56.2273 14.6266 63.9638V67.8278H5.53964C2.72555 67.8278 0.445312 70.108 0.445312 72.9221C0.445312 75.7362 2.72555 78.0164 5.53964 78.0164H14.6266V96.1583H5.53964C2.72555 96.1583 0.445312 98.4385 0.445312 101.253C0.445312 104.067 2.72555 106.347 5.53964 106.347H14.6266V124.481H5.53964C2.72555 124.481 0.445312 126.761 0.445312 129.575C0.445312 132.389 2.72555 134.67 5.53964 134.67H14.6266V152.811H5.53964C2.72555 152.811 0.445312 155.092 0.445312 157.906C0.445312 160.72 2.72555 163 5.53964 163H14.6266V181.143H5.53964C2.72555 181.143 0.445312 183.423 0.445312 186.237C0.445312 189.051 2.72555 191.331 5.53964 191.331H14.6266V195.186C14.6266 202.922 20.3271 209.22 27.3307 209.22H116.07C123.073 209.22 128.774 202.922 128.774 195.186V63.9638ZM46.1126 87.3449H97.282C100.657 87.3449 103.39 90.0775 103.39 93.4526C103.39 96.8277 100.657 99.5604 97.282 99.5604H46.1126C42.7375 99.5604 40.0049 96.8277 40.0049 93.4526C40.0049 90.0775 42.7375 87.3449 46.1126 87.3449ZM97.2819 112.907H46.1125C42.7374 112.907 40.0048 115.64 40.0048 119.015C40.0048 122.39 42.7374 125.122 46.1125 125.122H97.2819C100.657 125.122 103.39 122.39 103.39 119.015C103.39 115.64 100.657 112.907 97.2819 112.907ZM40.0048 144.586C40.0048 141.211 42.7374 138.478 46.1125 138.478H78.5696C81.9447 138.478 84.6773 141.211 84.6773 144.586C84.6773 147.961 81.9447 150.694 78.5696 150.694H46.1125C42.7374 150.694 40.0048 147.961 40.0048 144.586Z" fill="currentColor"/>
    </svg>
    <svg viewBox="0 0 239 154" id="MusicFX">
      <path d="M232.085 83H6.9152C3.09588 83 0 79.8662 0 76C0 72.1338 3.09588 69 6.9152 69H232.085C235.904 69 239 72.1338 239 76C239 79.8662 235.904 83 232.085 83Z" fill="currentColor"/>
      <path d="M215.071 83C185.753 83 167.854 59.5908 153.473 40.7755C142.471 26.3823 132.961 13.9532 121.885 13.9532C109.753 13.9532 100.233 27.8742 90.1586 42.6109C77.2058 61.5443 62.5259 83 36.9295 83C33.1023 83 30 79.8766 30 76.0234C30 72.1702 33.1023 69.0468 36.9295 69.0468C55.234 69.0468 66.6516 52.3566 78.7409 34.6898C90.4038 17.6347 102.472 0 121.885 0C139.784 0 151.767 15.6705 164.453 32.2641C178.28 50.3495 192.587 69.0468 215.071 69.0468C218.898 69.0468 222 72.1702 222 76.0234C222 79.8766 218.898 83 215.071 83Z" fill="currentColor"/>
      <path d="M147.126 123C130.303 123 117.873 113.546 105.847 104.4C91.9137 93.7961 77.5004 82.8407 53.9295 82.8407C50.1023 82.8407 47 79.7425 47 75.9203C47 72.0982 50.1023 69 53.9295 69C82.1698 69 99.2057 81.957 114.237 93.3916C125.356 101.856 134.962 109.159 147.115 109.159C160.334 109.159 169.471 101.387 180.057 92.3908C192.946 81.4247 207.561 69 232.071 69C235.898 69 239 72.0982 239 75.9203C239 79.7425 235.898 82.8407 232.071 82.8407C212.668 82.8407 201.197 92.5931 189.044 102.931C177.434 112.8 165.43 123 147.115 123H147.126Z" fill="currentColor"/>
      <path d="M84.427 154C68.5086 154 58.4029 137.602 47.7021 120.25C36.3424 101.828 24.5896 82.7712 6.90718 82.7712C3.09229 82.7712 0 79.6886 0 75.8856C0 72.0826 3.09229 69 6.90718 69C32.315 69 46.7457 92.3898 59.4655 113.036C67.7116 126.405 76.234 140.229 84.427 140.229C93.4595 140.229 101.621 125.43 109.516 111.119C120.408 91.3729 132.756 69 155.093 69C158.908 69 162 72.0826 162 75.8856C162 79.6886 158.908 82.7712 155.093 82.7712C140.917 82.7712 131.109 100.557 121.62 117.761C111.79 135.578 101.631 154 84.427 154Z" fill="currentColor"/>
    </svg>
    <svg viewBox="0 0 198 197" id="PromptApps">
      <path d="M18.1307 197C13.1427 197 8.87774 195.224 5.32664 191.673C1.77555 188.122 0 183.857 0 178.869V151.687C0 146.699 1.77555 142.434 5.32664 138.883C8.87774 135.332 13.1427 133.556 18.1307 133.556H45.3131C50.3011 133.556 54.5661 135.332 58.1172 138.883C61.6682 142.434 63.4438 146.699 63.4438 151.687V178.869C63.4438 183.857 61.6682 188.122 58.1172 191.673C54.5661 195.224 50.3011 197 45.3131 197H18.1307ZM99.6869 197C94.6989 197 90.434 195.224 86.8829 191.673C83.3318 188.122 81.5562 183.857 81.5562 178.869V151.687C81.5562 146.699 83.3318 142.434 86.8829 138.883C90.434 135.332 94.6989 133.556 99.6869 133.556H126.869C131.857 133.556 136.122 135.332 139.673 138.883C143.224 142.434 145 146.699 145 151.687V178.869C145 183.857 143.224 188.122 139.673 191.673C136.122 195.224 131.857 197 126.869 197H99.6869ZM23.1187 182.951H40.1054C42.6772 182.951 44.8646 182.082 46.6768 180.343C48.4889 178.604 49.395 176.453 49.395 173.89V156.675C49.395 154.103 48.5255 151.952 46.7866 150.223C45.0477 148.484 42.8969 147.614 40.3342 147.614H23.1187C20.5469 147.614 18.3961 148.484 16.6664 150.223C14.9274 151.961 14.0579 154.112 14.0579 156.675V173.89C14.0579 176.462 14.9274 178.613 16.6664 180.343C18.4053 182.082 20.5561 182.951 23.1187 182.951ZM104.675 182.951H121.662C124.233 182.951 126.384 182.082 128.114 180.343C129.844 178.604 130.722 176.453 130.722 173.89V156.675C130.722 154.103 129.853 151.952 128.114 150.223C126.375 148.484 124.224 147.614 121.662 147.614H104.675C102.103 147.614 99.9523 148.484 98.2226 150.223C96.4836 151.961 95.6142 154.112 95.6142 156.675V173.89C95.6142 176.462 96.4836 178.613 98.2226 180.343C99.9615 182.073 102.112 182.951 104.675 182.951ZM18.1307 115.444C13.1427 115.444 8.87774 113.668 5.32664 110.117C1.77555 106.566 0 102.301 0 97.3131V70.1307C0 65.1427 1.77555 60.8777 5.32664 57.3266C8.87774 53.7755 13.1427 52 18.1307 52H45.3131C50.3011 52 54.5661 53.7755 58.1172 57.3266C61.6682 60.8777 63.4438 65.1427 63.4438 70.1307V97.3131C63.4438 102.301 61.6682 106.566 58.1172 110.117C54.5661 113.668 50.3011 115.444 45.3131 115.444H18.1307ZM99.6869 115.444C94.6989 115.444 90.434 113.668 86.8829 110.117C83.3318 106.566 81.5562 102.301 81.5562 97.3131V70.1307C81.5562 65.1427 83.3318 60.8777 86.8829 57.3266C90.434 53.7755 94.6989 52 99.6869 52H126.869C131.857 52 136.122 53.7755 139.673 57.3266C143.224 60.8777 145 65.1427 145 70.1307V97.3131C145 102.301 143.224 106.566 139.673 110.117C136.122 113.668 131.857 115.444 126.869 115.444H99.6869ZM23.1187 101.395H40.1054C42.6772 101.395 44.8646 100.526 46.6768 98.7866C48.4889 97.0477 49.395 94.8969 49.395 92.3342V75.3475C49.395 72.7757 48.5255 70.6249 46.7866 68.8952C45.0477 67.1562 42.8969 66.2868 40.3342 66.2868H23.1187C20.5469 66.2868 18.3961 67.1562 16.6664 68.8952C14.9274 70.6341 14.0579 72.7849 14.0579 75.3475V92.3342C14.0579 94.906 14.9274 97.0568 16.6664 98.7866C18.4053 100.526 20.5561 101.395 23.1187 101.395ZM104.675 101.395H121.662C124.233 101.395 126.384 100.526 128.114 98.7866C129.853 97.0477 130.722 94.8969 130.722 92.3342V75.3475C130.722 72.7757 129.853 70.6249 128.114 68.8952C126.375 67.1562 124.224 66.2868 121.662 66.2868H104.675C102.103 66.2868 99.9523 67.1562 98.2226 68.8952C96.4836 70.6341 95.6142 72.7849 95.6142 75.3475V92.3342C95.6142 94.906 96.4836 97.0568 98.2226 98.7866C99.9615 100.526 102.112 101.395 104.675 101.395Z" fill="currentColor"/>
      <path d="M163.5 70C163.5 60.2445 166.847 51.9708 173.533 45.1788C180.228 38.3868 188.384 35 198 35C188.384 35 180.228 31.604 173.533 24.8212C166.838 18.0384 163.5 9.75546 163.5 0C163.5 9.75546 160.153 18.0292 153.467 24.8212C146.772 31.6132 138.616 35 129 35C138.616 35 146.772 38.396 153.467 45.1788C160.162 51.9708 163.5 60.2445 163.5 70Z" fill="currentColor"/>
    </svg>
    <svg viewBox="0 0 177 177" id="SaySee">
      <path d="M66.0898 176.22C57.7698 176.22 50.5898 173.32 44.5498 167.53C38.5098 161.74 35.09 154.76 34.27 146.6C24.48 145.29 16.32 140.97 9.79004 133.63C3.26004 126.29 0 117.64 0 107.69C0 104.26 0.450098 100.88 1.3501 97.53C2.2501 94.19 3.59014 91.04 5.39014 88.11C3.60014 85.17 2.2501 82.07 1.3501 78.81C0.450098 75.55 0 72.12 0 68.53C0 58.58 3.26004 49.97 9.79004 42.71C16.32 35.45 24.39 31.17 34.02 29.86C34.51 21.54 37.8498 14.48 44.0498 8.69C50.2498 2.9 57.5901 0 66.0801 0C70.3201 0 74.2802 0.819982 77.9502 2.44998C81.6202 4.07998 85.0099 6.28 88.1099 9.06C91.0499 6.29 94.3901 4.07998 98.1401 2.44998C101.89 0.819982 105.89 0 110.13 0C118.61 0 125.92 2.85998 132.04 8.56998C138.16 14.28 141.46 21.3 141.95 29.62C151.58 30.93 159.69 35.25 166.3 42.59C172.91 49.93 176.21 58.58 176.21 68.53C176.21 72.12 175.76 75.55 174.86 78.81C173.96 82.07 172.62 85.17 170.82 88.11C172.61 91.05 173.96 94.19 174.86 97.53C175.76 100.87 176.21 104.26 176.21 107.69C176.21 117.81 172.91 126.5 166.3 133.76C159.69 141.02 151.49 145.3 141.7 146.61C140.88 154.77 137.5 161.74 131.54 167.54C125.58 173.33 118.45 176.23 110.12 176.23C106.04 176.23 102.08 175.45 98.25 173.9C94.42 172.35 91.0298 170.19 88.0898 167.41C84.9898 170.18 81.5601 172.35 77.8101 173.9C74.0601 175.45 70.1401 176.23 66.0601 176.23L66.0898 176.22ZM97.9102 31.82V144.41C97.9102 147.84 99.09 150.73 101.46 153.1C103.83 155.47 106.72 156.65 110.15 156.65C113.58 156.65 116.23 155.34 118.59 152.73C120.96 150.12 122.22 147.18 122.38 143.92C118.95 142.61 115.81 140.86 112.96 138.66C110.1 136.46 107.53 133.81 105.25 130.71C103.62 128.43 103.01 125.98 103.41 123.37C103.82 120.76 105.16 118.64 107.45 117.01C109.73 115.38 112.18 114.77 114.79 115.17C117.4 115.57 119.52 116.92 121.15 119.21C122.94 121.82 125.23 123.82 128 125.21C130.77 126.6 133.79 127.29 137.06 127.29C142.44 127.29 147.05 125.37 150.89 121.54C154.73 117.71 156.64 113.1 156.64 107.71C156.64 106.89 156.6 106.08 156.52 105.26C156.44 104.44 156.23 103.63 155.91 102.81C153.14 104.44 150.16 105.67 146.98 106.48C143.8 107.29 140.49 107.7 137.07 107.7C134.3 107.7 131.97 106.76 130.09 104.89C128.21 103.01 127.28 100.69 127.28 97.91C127.28 95.13 128.22 92.81 130.09 90.93C131.97 89.05 134.29 88.12 137.07 88.12C142.45 88.12 147.06 86.2 150.9 82.37C154.73 78.54 156.65 73.93 156.65 68.54C156.65 63.15 154.73 58.59 150.9 54.83C147.07 51.08 142.46 49.12 137.07 48.96C135.28 51.9 132.95 54.47 130.09 56.67C127.23 58.87 124.09 60.63 120.67 61.93C118.06 62.91 115.53 62.83 113.08 61.69C110.63 60.55 109 58.67 108.18 56.06C107.36 53.45 107.49 50.92 108.55 48.47C109.61 46.02 111.45 44.39 114.06 43.57C116.51 42.75 118.51 41.29 120.06 39.16C121.61 37.04 122.39 34.59 122.39 31.82C122.39 28.39 121.21 25.5 118.84 23.13C116.47 20.76 113.58 19.58 110.15 19.58C106.72 19.58 103.83 20.76 101.46 23.13C99.09 25.5 97.9102 28.39 97.9102 31.82ZM78.3301 144.41V31.82C78.3301 28.39 77.1498 25.5 74.7798 23.13C72.4098 20.76 69.5198 19.58 66.0898 19.58C62.6598 19.58 59.7699 20.76 57.3999 23.13C55.0299 25.5 53.8501 28.39 53.8501 31.82C53.8501 34.43 54.5798 36.84 56.0498 39.04C57.5198 41.24 59.4799 42.75 61.9199 43.57C64.5299 44.39 66.4098 46.02 67.5498 48.47C68.6898 50.92 68.86 53.45 68.04 56.06C67.06 58.67 65.3499 60.55 62.8999 61.69C60.4499 62.83 57.9201 62.91 55.3101 61.93C51.8801 60.62 48.7401 58.87 45.8901 56.67C43.0301 54.47 40.7102 51.9 38.9102 48.96C33.6902 49.12 29.1601 51.12 25.3301 54.96C21.5001 58.79 19.5801 63.32 19.5801 68.54C19.5801 73.76 21.5001 78.53 25.3301 82.37C29.1601 86.2 33.7702 88.12 39.1602 88.12C41.9302 88.12 44.2601 89.06 46.1401 90.93C48.0201 92.81 48.9502 95.13 48.9502 97.91C48.9502 100.69 48.0101 103.01 46.1401 104.89C44.2601 106.77 41.9402 107.7 39.1602 107.7C35.7302 107.7 32.43 107.29 29.25 106.48C26.07 105.67 23.0898 104.44 20.3198 102.81C19.9898 103.63 19.79 104.44 19.71 105.26C19.63 106.08 19.5898 106.89 19.5898 107.71C19.5898 113.09 21.5098 117.7 25.3398 121.54C29.1698 125.37 33.7799 127.29 39.1699 127.29C42.4299 127.29 45.45 126.6 48.23 125.21C51 123.82 53.2901 121.82 55.0801 119.21C56.7101 116.93 58.8299 115.58 61.4399 115.17C64.0499 114.76 66.4998 115.37 68.7798 117.01C71.0598 118.64 72.4098 120.76 72.8198 123.37C73.2298 125.98 72.62 128.43 70.98 130.71C68.7 133.81 66.0799 136.5 63.1499 138.79C60.2099 141.07 57.0301 142.87 53.6001 144.17C53.7601 147.43 55.07 150.33 57.52 152.86C59.97 155.39 62.8198 156.65 66.0898 156.65C69.5198 156.65 72.4098 155.47 74.7798 153.1C77.1498 150.73 78.3301 147.84 78.3301 144.41Z" fill="currentColor"/>
    </svg>
    <svg viewBox="0 0 165 165" id="BardExtensions">
      <path d="M158.864 78.0567C154.77 73.963 149.766 71.9208 143.841 71.9208V38.0762C143.841 33.4213 142.186 29.438 138.874 26.1262C135.562 22.8144 131.579 21.1586 126.924 21.1586H93.0795C93.0795 15.2342 91.0373 10.2297 86.9436 6.13597C82.8499 2.04225 77.8453 0 71.9209 0C65.9965 0 60.992 2.04225 56.8983 6.13597C52.8045 10.2297 50.7624 15.2342 50.7624 21.1586H16.9178C12.2629 21.1586 8.27935 22.8144 4.96758 26.1262C1.6558 29.438 0 33.4213 0 38.0762V148.082C0 152.737 1.6558 156.721 4.96758 160.032C8.27935 163.344 12.2629 165 16.9178 165H126.924C131.579 165 135.562 163.344 138.874 160.032C142.186 156.721 143.841 152.737 143.841 148.082V114.238C149.766 114.238 154.77 112.196 158.864 108.102C162.958 104.008 165 99.0037 165 93.0793C165 87.1549 162.958 82.1505 158.864 78.0567ZM126.924 148.082H16.9178V38.0762H126.924V148.082Z" fill="currentColor"/>
      <path d="M67.5972 106.106L64.3316 113.585C63.0713 116.455 59.0971 116.455 57.8368 113.585L54.5708 106.106C51.6638 99.4546 46.4294 94.1557 39.907 91.2579L30.9192 87.2654C28.0582 85.9959 28.0582 81.8378 30.9192 80.5775L39.6312 76.7137C46.3284 73.7423 51.6547 68.2503 54.5065 61.3691L57.8184 53.4025C59.0419 50.4495 63.1355 50.4495 64.359 53.4025L67.6709 61.3691C70.5319 68.2503 75.8583 73.7423 82.5462 76.7137L91.2582 80.5775C94.1193 81.847 94.1193 86.0051 91.2582 87.2654L82.2704 91.2579C75.7389 94.1557 70.5137 99.4454 67.6067 106.106H67.5972Z" fill="currentColor"/>
      <path d="M102.324 132.508L101.404 134.615C100.733 136.151 98.5986 136.151 97.927 134.615L97.0071 132.508C95.3696 128.755 92.4164 125.765 88.7366 124.137L85.9031 122.876C84.376 122.196 84.376 119.969 85.9031 119.298L88.5803 118.111C92.352 116.437 95.3604 113.336 96.9702 109.454L97.9176 107.182C98.5707 105.6 100.769 105.6 101.423 107.182L102.37 109.454C103.98 113.336 106.979 116.427 110.76 118.111L113.428 119.298C114.955 119.978 114.955 122.205 113.428 122.876L110.595 124.137C106.915 125.774 103.962 128.755 102.324 132.508Z" fill="currentColor"/>
    </svg>
    <svg viewBox="0 0 185 185" id="DuetAI">
      <path fill-rule="evenodd" clip-rule="evenodd" d="M138.68 41.72C136.09 18.25 116.19 0 92.0298 0C67.8698 0 47.9699 18.25 45.3799 41.72C45.1699 43.63 43.6397 45.17 41.7197 45.38C18.2497 47.97 0 67.8699 0 92.0299C0 116.19 18.2497 136.09 41.7197 138.68C43.6297 138.89 45.1699 140.42 45.3799 142.34C47.9699 165.81 67.8698 184.06 92.0298 184.06C116.19 184.06 136.09 165.81 138.68 142.34C138.89 140.43 140.42 138.89 142.34 138.68C165.81 136.09 184.06 116.19 184.06 92.0299C184.06 67.8699 165.81 47.97 142.34 45.38C140.43 45.17 138.89 43.64 138.68 41.72ZM146.16 92.4199C146.64 92.3699 146.62 91.67 146.14 91.62C117.87 88.62 95.2699 66.18 92.4199 37.89C92.3699 37.41 91.6701 37.41 91.6201 37.89C88.6101 66.2 66.1899 88.59 37.8799 91.62C37.3999 91.67 37.3999 92.3699 37.8799 92.4199C66.1799 95.2899 88.6201 117.84 91.6201 146.13C91.6701 146.61 92.3699 146.63 92.4199 146.15C95.2699 117.75 117.76 95.2799 146.16 92.4199Z" fill="currentColor"/>
    </svg>
    <svg viewBox="0 0 154 159" id="HelpMeScript">
      <path d="M83.0354 2.49887C81.4921 0.955452 79.1404 0 77 0C74.8596 0 72.5079 0.964639 70.9554 2.49887L2.2231 71.3098C0.918635 72.7429 0.0734908 74.5895 0 76.6474V150.447C0 155.178 3.83071 159 8.55249 159H145.448C150.178 159 154 155.169 154 150.447V76.6474C154 74.5895 153.081 72.7429 151.768 71.3098L83.0354 2.49887ZM36.479 82.6833C34.1457 80.3222 34.1457 76.4912 36.479 74.1302C38.8123 71.7783 42.643 71.7783 45.0315 74.1302L67.7493 96.8497C70.0827 99.1924 70.0827 103.042 67.7493 105.394L67.3635 105.715L45.0315 128.104C42.6982 130.447 38.8675 130.465 36.479 128.132C34.1457 125.77 34.1457 121.967 36.479 119.606L54.9252 101.149L36.479 82.6925V82.6833ZM74.6299 129.877C71.2953 129.877 68.6312 127.167 68.6312 123.832C68.6312 120.497 71.2953 117.787 74.6299 117.787H115.243C118.577 117.787 121.297 120.497 121.297 123.832C121.297 127.167 118.577 129.877 115.243 129.877H74.6299Z" fill="currentColor"/>
    </svg>
    <svg viewBox="0 0 191 158" id="TextFX">
      <path d="M43.1438 40.9052C44.7409 40.001 46.197 39.1206 47.6766 38.3116C49.3676 37.4074 51.0821 36.5746 52.7731 35.6942C54.3467 34.8851 55.9202 34.0761 57.5173 33.3147C59.8894 32.1964 62.285 31.1256 64.7041 30.1024C66.7708 29.222 68.8846 28.413 70.9749 27.604C72.8537 26.8902 74.7796 26.2239 76.682 25.5577C78.3965 24.9628 80.111 24.4155 81.8254 23.8683C83.8218 23.2496 85.8416 22.6309 87.8614 22.0361C89.0592 21.703 90.3039 21.5364 91.3843 20.8463C91.4548 20.7988 91.5487 20.7988 91.6191 20.7988C93.1457 20.4418 94.6489 20.0849 96.1755 19.7042C97.3498 19.4187 98.5006 19.0618 99.6749 18.8C100.379 18.6335 101.108 18.6097 101.812 18.4431C103.104 18.1338 104.396 17.6817 105.687 17.3961C107.496 17.0154 109.328 16.7299 111.16 16.3968C112.475 16.1588 113.79 15.9209 115.105 15.6829C116.608 15.4212 118.111 15.1595 119.615 14.9691C121.963 14.6836 124.335 14.4218 126.684 14.2077C127.741 14.1125 128.821 14.2077 129.878 14.1839C130.066 14.1839 130.348 14.1125 130.465 13.9935C130.841 13.5414 131.264 13.3511 131.827 13.3511C132.344 13.3511 132.579 12.9228 132.344 12.4707C132.203 12.1851 131.968 11.9472 131.78 11.7092C131.686 11.5903 131.546 11.4951 131.546 11.3761C131.546 10.7813 131.146 10.4481 130.864 10.0198C130.512 9.49635 130.113 9.11563 129.596 8.80631C129.502 8.75872 129.408 8.61595 129.385 8.52077C129.267 7.75934 128.68 7.4976 128.046 7.25966C127.6 7.0931 127.154 6.90274 126.731 6.6648C126.332 6.42685 125.885 6.1889 125.651 5.80819C125.369 5.37989 125.04 5.14194 124.594 4.97538C123.325 4.4519 122.128 3.80945 121.212 2.73869C121.118 2.64352 120.977 2.59593 120.836 2.57213C119.802 2.42936 118.769 2.31039 117.759 2.12003C117.266 2.02486 116.632 2.02486 116.796 1.19205C116.796 1.12066 116.679 0.954102 116.608 0.930307C115.739 0.716156 114.87 0.454416 113.978 0.335443C112.851 0.216471 111.7 0.240265 110.572 0.168881C110.032 0.145087 109.492 -0.021475 108.975 0.00231958C108.153 0.00231958 107.331 0.168881 106.509 0.192676C103.738 0.335443 100.99 0.620978 98.2657 1.14446C96.3868 1.52517 94.4845 1.85829 92.6056 2.23901C91.2669 2.50075 89.9047 2.73869 88.5894 3.02423C86.8045 3.42874 85.043 3.83324 83.2581 4.30913C81.6141 4.73744 79.9935 5.26092 78.3495 5.71301C76.8934 6.11752 75.4372 6.47444 73.9811 6.87895C73.253 7.0693 72.5484 7.37863 71.7969 7.54519C71.1627 7.68796 70.5756 8.47318 69.8475 7.75935C69.8475 7.75935 69.7771 7.75935 69.7301 7.78314C68.955 8.02108 68.2035 8.23524 67.4284 8.47318C66.9118 8.63974 66.3951 8.8063 65.8784 8.94907C65.4321 9.06805 64.9624 9.11563 64.5631 9.2822C64.2578 9.40117 64.023 9.73429 63.6942 9.85326C62.7547 10.1864 61.7683 10.4243 60.8523 10.7813C59.1613 11.4237 57.4938 12.1137 55.8263 12.8038C53.7126 13.6842 51.5988 14.5646 49.5085 15.5164C46.6667 16.7775 43.8249 18.0386 41.0066 19.3949C38.658 20.5132 36.3328 21.7267 34.0547 22.9641C31.8 24.1776 29.5923 25.4863 27.3376 26.7474C25.1534 27.9847 22.9457 29.1982 20.7615 30.4594C19.4463 31.2208 18.1781 32.0774 16.8628 32.8626C15.0544 33.9571 13.2225 34.9803 11.4141 36.0987C9.18288 37.4549 6.85775 38.5971 4.48565 39.6203C3.96896 39.8582 3.52272 40.8814 3.8985 41.2621C4.43868 41.8094 4.69703 42.428 4.88492 43.1418C4.93189 43.3084 5.09629 43.4274 5.21372 43.5701C5.33115 43.7129 5.51904 43.8557 5.51904 43.9985C5.5895 44.7599 6.20014 45.1644 6.74032 45.2834C7.42142 45.4499 7.79719 45.8068 8.2904 46.2113C8.92453 46.711 9.51168 47.3059 10.2163 47.7104C10.3572 47.7818 10.5216 47.8294 10.6625 47.8532C11.1322 47.8532 11.461 47.9483 11.7429 48.4242C11.9073 48.686 12.377 48.805 12.7058 48.9477C12.8937 49.0191 13.1755 48.9715 13.3399 49.0905C14.3028 49.6616 15.2423 50.3278 16.2287 50.8513C16.8159 51.1606 17.497 51.351 18.1311 51.4699C19.141 51.6365 20.2214 50.9465 21.1843 51.7793C21.2547 51.8507 21.4191 51.8507 21.5366 51.8269C22.4056 51.6841 23.3215 51.6127 24.167 51.351C24.989 51.0892 25.7876 50.6847 26.5861 50.304C27.7604 49.7567 29.0286 49.4474 30.0385 48.5432C30.2969 48.3053 30.7431 48.2577 31.0954 48.1863C31.2129 48.1863 31.4712 48.3766 31.4712 48.4956C31.5182 49.2095 31.5417 49.9233 31.5182 50.6371C31.4477 51.9934 31.3303 53.3497 31.2363 54.706C31.1894 55.4674 31.2363 56.2289 31.1659 56.9903C30.8606 59.8218 30.5318 62.6534 30.1795 65.4849C30.1325 65.7705 29.8976 66.1274 29.6628 66.2702C27.3376 67.674 24.8246 68.6734 22.523 70.1487C20.1509 71.6715 17.6379 72.9326 15.2188 74.3365C12.7763 75.7642 10.3807 77.2394 7.93811 78.6909C6.17665 79.7379 4.36822 80.7373 2.58328 81.7604C1.92567 82.1411 1.17411 82.3791 0.821818 83.1405C0.657415 83.4974 0.422554 83.8067 0.281637 84.1637C0.14072 84.5206 -0.0706547 84.9727 0.0232898 85.282C0.211179 85.8055 0.563471 86.329 0.939248 86.7335C1.22108 87.0428 1.66732 87.1856 2.06658 87.4235C1.6908 87.8994 1.47943 88.4467 2.09007 88.875C2.41887 89.1129 2.81814 89.2081 3.2174 89.3271C3.94547 89.565 4.69703 89.7792 5.4251 89.9695C5.28418 91.0641 5.30767 91.1355 6.20014 91.4686C6.71683 91.6352 7.23353 91.7303 7.75022 91.8969C8.19646 92.0397 8.78361 92.0873 9.04196 92.3966C9.86397 93.4198 11.1087 93.396 12.1421 93.8956C12.7528 94.1812 13.5513 93.8718 14.0445 94.6095C14.2089 94.8474 14.6551 94.895 14.9839 95.014C15.4537 95.1805 15.9469 95.3947 16.4401 95.4661C17.0038 95.5613 17.6849 95.704 18.1781 95.4661C18.6713 95.2519 19.094 94.8712 19.6812 94.8474C19.8221 94.8474 20.0335 94.7998 20.0569 94.7522C20.1509 94.3239 20.5032 94.3001 20.785 94.1574C21.0434 94.0384 21.3017 93.8481 21.5366 93.6577C22.1942 93.2056 22.8048 92.6821 23.4859 92.2776C24.3079 91.7541 25.1769 91.2782 26.0224 90.8023C26.5391 90.5168 27.0558 90.2313 27.6195 89.922C27.6195 90.1361 27.6195 90.2313 27.6195 90.3265C27.502 91.6827 27.4081 93.039 27.2672 94.3953C27.1263 96.0134 26.9384 97.6076 26.7975 99.2256C26.774 99.5587 26.727 100.082 26.9149 100.249C27.3846 100.63 27.596 101.058 27.643 101.653C27.643 101.795 27.7839 101.938 27.8778 102.081C28.1362 102.509 28.371 102.914 28.6294 103.342C29.0052 104.008 29.2165 104.056 29.9211 103.532C29.9211 103.747 29.9681 103.913 29.9211 104.032C29.5923 104.651 29.7332 104.936 30.4143 104.984C30.6257 104.984 30.8136 104.984 31.025 104.984C31.4477 104.936 31.7061 105.055 31.9409 105.484C32.4106 106.388 32.6925 106.435 33.5145 105.793C33.5145 106.031 33.5615 106.221 33.5145 106.316C33.1857 106.792 33.3501 107.221 33.9138 107.292C34.1721 107.316 34.4305 107.316 34.6888 107.292C35.182 107.244 35.5108 107.292 35.6752 107.887C35.8396 108.482 36.2859 108.624 36.6147 108.268C37.0139 107.815 37.1783 108.03 37.3897 108.434C37.5071 108.648 37.7185 108.981 37.8829 108.981C38.7754 109.053 39.4565 109.481 40.1611 109.981C41.2884 110.814 42.6506 110.861 43.9658 110.956C44.8583 111.028 45.1871 110.671 45.328 109.79C45.375 109.481 45.5159 109.124 45.7273 108.886C46.5728 107.815 46.8311 106.507 46.972 105.198C47.066 104.413 47.019 103.628 47.113 102.866C47.2304 101.676 47.5357 100.487 47.4887 99.297C47.4652 98.0597 47.5827 96.87 47.7471 95.6802C47.8175 95.2281 47.888 94.7998 47.9115 94.3477C48.0289 93.0628 48.0759 91.7779 48.2168 90.5168C48.4047 88.7798 48.663 87.019 48.8979 85.282C49.1093 83.9019 49.3911 82.5218 49.579 81.1418C49.6495 80.6421 49.626 80.1424 49.626 79.6189C49.626 78.5244 49.7904 77.3822 51.0821 76.8587C52.5617 76.2877 53.9944 75.6214 55.4505 75.0028C56.296 74.6458 57.118 74.2175 57.987 73.9082C59.6545 73.2896 61.369 72.7661 63.0365 72.1712C63.6002 71.9809 64.0934 71.6477 64.6571 71.4574C65.4321 71.2194 66.2307 71.0767 67.0292 70.8387C68.18 70.4818 69.3308 70.0773 70.4816 69.7204C71.4211 69.411 72.384 69.1255 73.3235 68.8638C74.4038 68.5782 75.4842 68.3879 76.5645 68.1023C77.9033 67.7454 79.2185 67.3409 80.5337 67.0078C81.4262 66.7936 82.3656 66.7223 83.2346 66.4605C84.0801 66.1988 84.9726 66.3177 85.8416 65.9132C86.781 65.4849 87.9083 65.4849 88.9652 65.2946C89.8107 65.1518 90.6797 65.0328 91.5252 64.8663C92.2533 64.7235 92.9344 64.5331 93.6624 64.4142C94.2731 64.2952 94.9072 64.2714 95.5178 64.1762C97.749 63.8907 99.9567 63.5576 102.188 63.2958C103.621 63.1293 105.077 63.1531 106.533 63.0103C108.059 62.8675 109.586 62.6296 111.113 62.3916C111.582 62.3203 112.146 62.4392 112.381 61.773C112.404 61.6778 112.663 61.6302 112.804 61.6064C113.038 61.5826 113.32 61.6302 113.508 61.535C113.814 61.4161 114.283 61.1781 114.283 61.0116C114.283 60.5119 113.743 60.6784 113.414 60.5833C113.344 60.5833 113.25 60.5833 113.179 60.5833C112.78 60.5833 112.569 60.4643 112.71 59.9884C112.78 59.7504 112.71 59.4649 112.71 59.227C112.663 58.7511 112.616 58.299 112.545 57.8231C112.545 57.7041 112.428 57.5376 112.334 57.5138C112.029 57.3948 111.7 57.371 111.418 57.252C110.901 57.0141 110.314 56.8475 109.891 56.4668C109.304 55.9195 108.928 55.1581 108.2 54.706C108.106 54.6346 108.012 54.3967 108.059 54.3015C108.294 53.7542 107.942 53.7066 107.566 53.6115C106.721 53.4211 105.875 53.1832 105.053 52.9452C104.912 52.8976 104.795 52.7073 104.724 52.5645C104.208 51.5175 104.208 51.5175 103.08 51.0654C103.033 51.0654 103.01 51.0416 102.986 51.0178C102.446 50.5658 101.836 50.4944 101.178 50.6847C100.943 50.7561 100.661 50.7085 100.403 50.6847C100.121 50.6609 99.8863 50.542 100.027 50.1612C100.192 49.7805 99.9332 49.6378 99.6514 49.5426C98.9703 49.3284 98.2892 49.1143 97.6316 48.9001C97.4907 48.8525 97.3028 48.8763 97.1619 48.8763C96.1755 48.8763 95.189 48.9715 94.2261 48.9477C91.3843 48.8763 88.566 49.0191 85.7241 49.3522C84.1975 49.5426 82.6944 49.6378 81.1678 49.8757C78.5374 50.304 75.9069 50.7799 73.2765 51.2558C71.1393 51.6603 69.0255 52.0886 66.8883 52.5407C66.442 52.6359 66.0428 52.8738 65.5965 52.9928C64.0934 53.3497 62.5668 53.659 61.0637 54.0398C59.8659 54.3491 58.6681 54.7774 57.4703 55.1343C56.6953 55.3722 55.8968 55.5864 55.1217 55.8006C54.0883 56.1099 53.0549 56.4192 51.9981 56.7523C51.9276 56.6096 51.8572 56.5144 51.8572 56.3954C51.8337 55.3247 51.8102 54.2539 51.4109 53.2307C51.1291 52.4931 51.0821 51.6841 50.7768 50.9703C49.9548 49.0905 49.0623 47.2583 48.1698 45.4023C47.9115 44.8551 47.5827 44.3078 47.1834 43.8795C46.1735 42.8087 44.9992 41.9759 43.684 41.3097C43.4961 41.2145 43.3552 41.0479 43.1438 40.9052ZM162.383 43.3798C162.688 43.0705 162.9 42.8325 163.111 42.5946C164.708 40.8576 166.305 39.1444 167.926 37.4074C168.795 36.4794 169.71 35.5752 170.579 34.6472C171.942 33.1481 173.21 31.5777 174.572 30.1024C176.099 28.4844 177.743 26.9853 179.246 25.3673C180.256 24.2728 181.289 23.2734 182.698 22.7023C183.168 22.512 183.732 22.2264 183.802 21.5364C183.802 21.3698 184.061 21.2033 184.225 21.0367C185.047 20.2039 186.245 19.8232 186.832 18.6097C187.208 17.8244 188.124 17.3248 188.805 16.6823C188.922 16.5633 188.993 16.3968 189.063 16.254C189.18 16.0161 189.227 15.6829 189.439 15.564C190.049 15.1357 190.496 14.7074 189.815 13.9697C189.815 13.9459 189.791 13.8983 189.815 13.8508C189.932 13.3511 189.533 13.1131 189.298 12.78C188.969 12.3041 188.358 12.1613 188.124 11.4951C187.865 10.805 187.231 10.115 186.315 10.0436C185.705 9.99603 185.07 10.0436 184.46 10.0674C184.131 10.0674 183.896 10.0436 183.802 9.63911C183.708 9.35358 183.473 9.09184 183.262 8.87769C182.91 8.52077 182.393 8.25903 182.158 7.83073C181.594 6.87895 180.913 6.11752 179.716 6.16511C179.128 6.16511 178.494 6.37926 177.931 6.30788C176.897 6.14132 175.981 5.99855 175.042 6.71238C174.079 7.45002 172.787 7.61658 171.848 8.47318C171.073 9.18702 170.11 9.66291 169.311 10.353C168.701 10.8764 168.254 11.5665 167.691 12.1375C166.164 13.7318 164.591 15.2784 163.134 16.9202C161.185 19.1093 159.353 21.3936 157.451 23.6065C155.924 25.4149 154.351 27.1995 152.8 28.9841C152.566 29.2696 152.307 29.5314 152.072 29.8169C151.016 31.1494 149.959 32.4819 148.902 33.7906C148.69 34.0761 148.409 34.1475 148.056 33.8858C146.905 33.0292 145.708 32.1964 144.533 31.3397C143.711 30.7449 142.913 30.0786 142.044 29.5076C140.447 28.4606 138.85 27.4612 137.229 26.4619C136.548 26.0336 135.844 25.5815 134.951 25.9622C134.81 26.0098 134.575 25.8908 134.387 25.7956C134.106 25.6529 133.824 25.4625 133.542 25.3197C132.602 24.82 131.686 24.2966 130.724 23.8921C130.348 23.7493 129.784 23.8207 129.432 24.0348C128.892 24.3679 128.469 24.3442 127.999 24.011C127.342 23.5351 126.261 23.9158 126.073 24.7249C126.026 24.9628 124.5 26.2477 124.265 26.2477C124.147 26.2477 124.03 26.1763 123.913 26.1525C123.396 26.1287 122.762 25.986 122.55 26.6046C122.292 27.3423 121.799 27.7944 121.212 28.2465C120.742 28.6034 120.249 28.8889 119.849 29.3172C119.145 30.0786 118.534 30.8877 117.877 31.6967C117.548 32.1012 117.055 32.4105 116.984 33.0292C116.984 33.1957 116.796 33.3623 116.655 33.4575C116.115 33.8144 115.739 34.2427 115.692 34.9803C115.692 35.2183 115.317 35.4324 115.105 35.6466C114.964 35.8131 114.753 35.9559 114.683 36.1462C114.354 37.2884 114.612 38.0736 115.598 38.8112C115.88 39.0254 116.28 39.0968 116.608 39.2633C117.853 39.9772 119.192 40.4769 120.272 41.4762C120.883 42.0473 121.634 42.4518 122.339 42.9039C123.278 43.5226 124.241 44.0698 125.181 44.6885C126.402 45.4975 127.553 46.3779 128.821 47.1393C130.183 47.9483 131.217 49.2333 132.696 49.8757C133.119 50.0661 133.471 50.4468 133.894 50.6847C134.223 50.8751 134.34 51.0416 134.059 51.3748C133.424 52.1362 132.79 52.8976 132.18 53.6828C131.381 54.706 130.583 55.7292 129.808 56.7523C128.939 57.8945 128.117 59.0842 127.224 60.1788C126.003 61.6778 124.735 63.1055 123.513 64.5807C123.255 64.8901 122.997 65.1994 122.738 65.5087C121.188 67.5551 119.638 69.6014 118.065 71.6239C117.125 72.8375 116.068 73.9796 115.105 75.1693C113.884 76.716 112.733 78.334 111.535 79.9044C110.69 80.999 109.821 82.046 108.975 83.1405C107.566 84.9489 106.181 86.8049 104.795 88.6133C103.761 89.9695 102.728 91.3496 101.671 92.7059C101.155 93.3722 100.544 93.9908 100.027 94.6809C98.3597 96.8938 96.7626 99.1542 95.0951 101.391C93.9443 102.914 92.6995 104.365 91.5252 105.888C90.5858 107.125 89.6933 108.41 88.7538 109.648C88.0727 110.552 87.3212 111.408 86.6636 112.313C86.0295 113.193 85.4658 114.169 84.8082 115.025C84.0097 116.096 83.1642 117.095 82.3421 118.142C81.8254 118.785 81.3087 119.451 80.8625 120.141C79.6647 121.902 78.5139 123.71 77.3161 125.495C76.3767 126.875 75.3668 128.231 74.4038 129.587C73.206 131.277 71.9848 132.966 70.8104 134.68C68.9785 137.297 67.1701 139.914 65.3617 142.556C64.3987 143.983 63.5063 145.458 62.5433 146.862C61.5569 148.314 60.547 149.718 59.5371 151.145C58.4802 152.668 57.3999 154.191 56.343 155.738C56.0142 156.214 55.7324 156.689 55.4505 157.189C55.3566 157.356 55.4036 157.594 55.4036 157.784C55.568 157.736 55.7558 157.689 55.9202 157.617C56.0847 157.57 56.2256 157.522 56.39 157.498C56.7188 157.427 57.0476 157.451 57.3294 157.308C57.7757 157.094 57.9635 157.165 58.1749 157.617C58.2689 157.808 58.6916 158.022 58.7151 157.998C59.0439 157.594 59.5606 157.617 59.9834 157.475C60.3356 157.356 60.6879 157.261 61.0402 157.142C61.1811 157.451 61.2516 157.641 61.3455 157.903C61.6274 157.689 61.8622 157.356 62.1206 157.332C62.7782 157.284 63.154 156.856 63.6002 156.499C63.9525 156.214 64.3753 155.809 64.751 155.809C65.62 155.809 66.2307 155.262 66.8178 154.857C67.8747 154.12 68.7672 153.12 69.7066 152.216C70.5991 151.359 71.515 150.527 72.337 149.622C73.8402 147.957 75.5546 146.529 76.8934 144.673C77.8798 143.317 79.0306 142.08 80.111 140.819C81.4027 139.319 82.7414 137.844 84.0566 136.369C84.6438 135.726 85.2074 135.084 85.7711 134.394C87.7205 132.038 89.6698 129.683 91.5957 127.327C91.9714 126.875 92.3472 126.423 92.723 125.971C93.4041 125.162 94.0617 124.376 94.7428 123.567C95.3065 122.877 95.8936 122.211 96.4103 121.497C96.8566 120.902 97.1854 120.236 97.6551 119.641C99.1112 117.857 100.591 116.096 102.047 114.311C102.869 113.312 103.597 112.241 104.396 111.242C105.288 110.147 106.204 109.077 107.096 107.958C108.341 106.388 109.539 104.746 110.784 103.176C112.123 101.51 113.508 99.9157 114.847 98.2738C116.397 96.3703 117.9 94.3953 119.474 92.4918C121.353 90.2313 123.255 88.0184 125.181 85.8055C126.332 84.4968 127.553 83.2595 128.68 81.9508C130.207 80.1662 131.663 78.334 133.166 76.5494C134.199 75.3121 135.233 74.0986 136.266 72.885C138.568 70.2201 140.846 67.5313 143.148 64.8901C144.674 63.1293 146.271 61.4399 147.821 59.6791C148.244 59.2032 148.643 59.0842 149.207 59.3935C150.499 60.1312 151.861 60.7022 153.317 61.0829C154.116 61.2971 154.891 61.4874 155.689 61.6778C156.817 61.9158 157.967 62.1537 159.118 62.3678C159.94 62.5106 160.809 62.5344 161.631 62.7248C163.299 63.1293 164.966 63.4386 166.728 63.2007C167.996 63.0341 169.288 63.2007 170.579 63.1293C171.895 63.0817 173.233 62.9865 174.549 62.8913C174.854 62.8913 175.159 62.7962 175.418 62.701C176.334 62.3679 177.25 62.0109 178.165 61.654C179.199 61.2257 180.279 60.8688 181.266 60.3453C182.205 59.8694 183.121 59.2984 183.967 58.6559C185 57.8707 186.151 57.0855 186.855 56.0385C187.936 54.4681 189.016 52.85 189.58 50.9227C190.19 48.8763 190.871 46.8776 190.918 44.6885C190.918 43.7129 191.036 42.7373 190.989 41.7618C190.918 40.0248 190.707 38.2878 190.167 36.5983C190.003 36.0511 189.815 35.8131 189.274 36.0987C189.18 35.9083 189.134 35.7417 189.016 35.5038C188.922 35.7417 188.852 35.9083 188.758 36.1225C188.64 35.599 188.593 35.1231 188.452 34.6948C188.311 34.2903 188.03 33.9096 187.889 33.5051C187.536 32.5057 187.09 32.3391 186.268 32.934C186.151 32.7198 186.01 32.4819 185.892 32.2677C185.822 32.2677 185.752 32.2677 185.705 32.2677C185.634 32.6247 185.564 32.9816 185.47 33.3623C185.141 33.1957 184.789 32.7436 184.554 33.4575C184.248 34.2903 183.896 35.0993 183.567 35.9083C183.168 35.8369 182.745 35.8131 182.628 35.9797C182.299 36.408 182.088 36.9553 181.853 37.4549C181.665 37.8595 181.571 38.3354 181.336 38.7161C180.89 39.4299 180.303 40.0723 179.857 40.7862C178.941 42.2614 177.86 43.4988 176.334 44.4506C174.901 45.3309 173.398 45.7355 171.801 45.9258C171.237 45.9972 170.65 46.0924 170.133 45.9496C168.301 45.4737 166.516 44.8788 164.708 44.3316C164.614 44.3078 164.52 44.2126 164.426 44.2364C163.604 44.3792 163.111 43.7605 162.383 43.3798Z" fill="currentColor"/>
    </svg>
    <svg viewBox="0 0 157 158" id="MagicEditor">
      <path fill-rule="evenodd" clip-rule="evenodd" d="M45 0H0V45H45V0ZM104 13H59V58H22V103H67V113H22V158H67H112H157V113V68V23H112V68H67V58H104V13Z" fill="currentColor"/>
    </svg>
    <svg viewBox="0 0 136 158" id="ProjectIDX">
      <path d="M11.2798 135.32H71.4199C77.6499 135.32 82.6997 140.37 82.6997 146.6C82.6997 152.83 77.6499 157.88 71.4199 157.88H11.2798C5.04979 157.88 0 152.83 0 146.6C0 140.37 5.04979 135.32 11.2798 135.32Z" fill="currentColor"/>
      <path d="M82.6997 101.49H93.98C100.21 101.49 105.26 106.54 105.26 112.77C105.26 119 100.21 124.05 93.98 124.05H82.6997C76.4697 124.05 71.4199 119 71.4199 112.77C71.4199 106.54 76.4697 101.49 82.6997 101.49Z" fill="currentColor"/>
      <path d="M37.5903 101.49H48.8701C55.1001 101.49 60.1504 106.54 60.1504 112.77C60.1504 119 55.1001 124.05 48.8701 124.05H37.5903C31.3603 124.05 26.3105 119 26.3105 112.77C26.3105 106.54 31.3603 101.49 37.5903 101.49Z" fill="currentColor"/>
      <path d="M63.9087 67.66H90.2188C96.4487 67.66 101.499 72.71 101.499 78.94C101.499 85.17 96.4487 90.22 90.2188 90.22H63.9087C57.6787 90.22 52.6289 85.17 52.6289 78.94C52.6289 72.71 57.6787 67.66 63.9087 67.66Z" fill="currentColor"/>
      <path d="M124.049 67.66C130.279 67.66 135.33 72.71 135.33 78.94C135.33 85.17 130.279 90.22 124.049 90.22C117.819 90.22 112.77 85.17 112.77 78.94C112.77 72.71 117.819 67.66 124.049 67.66Z" fill="currentColor"/>
      <path d="M37.5903 33.83H97.7305C103.96 33.83 109.01 38.88 109.01 45.11C109.01 51.34 103.96 56.39 97.7305 56.39H37.5903C31.3603 56.39 26.3105 51.34 26.3105 45.11C26.3105 38.88 31.3603 33.83 37.5903 33.83Z" fill="currentColor"/>
      <path d="M45.1099 0H71.4199C77.6499 0 82.6997 5.05 82.6997 11.28C82.6997 17.51 77.6499 22.56 71.4199 22.56H45.1099C38.8799 22.56 33.8301 17.51 33.8301 11.28C33.8301 5.05 38.8799 0 45.1099 0Z" fill="currentColor"/>
      <path d="M11.2798 0C17.5098 0 22.5601 5.05 22.5601 11.28C22.5601 17.51 17.5098 22.56 11.2798 22.56C5.04979 22.56 0 17.51 0 11.28C0 5.05 5.04979 0 11.2798 0Z" fill="currentColor"/>
    </svg>
    <svg viewBox="0 0 167 157" id="MagicCompose">
      <path d="M150 25H166.67V116.66C166.67 121.24 165.04 125.17 161.77 128.43C158.51 131.69 154.58 133.33 150 133.33H33.3301V116.66H149.99V25H150Z" fill="currentColor"/>
      <path d="M0 16.67V83.3301C0 87.9101 1.63 91.8401 4.9 95.1001C8.16 98.3601 12.09 100 16.67 100H116.67C121.25 100 125.18 98.3701 128.44 95.1001C131.7 91.8401 133.34 87.9101 133.34 83.3301V16.67C133.34 12.09 131.71 8.16002 128.44 4.90002C125.18 1.64002 121.25 0 116.67 0H16.67C12.09 0 8.16 1.63002 4.9 4.90002C1.63 8.16002 0 12.09 0 16.67ZM16.67 16.67H116.67V83.3301H16.67V16.67Z" fill="currentColor"/>
      <path d="M144.449 132.79L166.659 156.21V105.89L144.449 132.79Z" fill="currentColor"/>
      <path d="M22.21 100L0 123.41V78.1001L22.21 100Z" fill="currentColor"/>
      <path d="M65.7395 77.61C65.7395 69.88 68.4295 63.33 73.7995 57.95C79.1795 52.57 85.7295 49.8899 93.4595 49.8899C85.7295 49.8899 79.1795 47.2 73.7995 41.83C68.4195 36.45 65.7395 29.8999 65.7395 22.1699C65.7395 29.8999 63.0495 36.45 57.6795 41.83C52.2995 47.21 45.7495 49.8899 38.0195 49.8899C45.7495 49.8899 52.2995 52.58 57.6795 57.95C63.0595 63.33 65.7395 69.88 65.7395 77.61Z" fill="currentColor"/>
    </svg>
    <svg viewBox="0 0 223 228" id="Youtube">
      <path d="M177.34 90.06C177.34 83.83 176.161 77.9799 173.791 72.4999C171.431 67.0199 168.22 62.26 164.17 58.2C160.12 54.14 155.35 50.94 149.87 48.58C144.39 46.22 138.541 45.03 132.311 45.03C138.541 45.03 144.39 43.8499 149.87 41.4799C155.35 39.1199 160.11 35.9099 164.17 31.8599C168.23 27.8099 171.431 23.04 173.791 17.56C176.151 12.08 177.34 6.23 177.34 0C177.34 6.23 178.52 12.08 180.89 17.56C183.26 23.04 186.46 27.7999 190.51 31.8599C194.56 35.9099 199.331 39.1199 204.811 41.4799C210.291 43.8399 216.14 45.03 222.37 45.03C216.14 45.03 210.291 46.21 204.811 48.58C199.331 50.94 194.57 54.15 190.51 58.2C186.46 62.25 183.25 67.0199 180.89 72.4999C178.53 77.9799 177.34 83.83 177.34 90.06Z" fill="currentColor"/>
      <path d="M86.8699 227.72C74.8499 227.72 63.56 225.44 52.99 220.88C42.42 216.32 33.2299 210.13 25.4099 202.31C17.5899 194.49 11.4001 185.3 6.84009 174.73C2.28009 164.16 0 152.87 0 140.85C0 128.83 2.28009 117.54 6.84009 106.97C11.4001 96.4 17.5899 87.21 25.4099 79.39C33.2299 71.57 42.42 65.38 52.99 60.82C63.56 56.26 74.8499 53.9799 86.8699 53.9799C98.8899 53.9799 110.18 56.26 120.75 60.82C131.32 65.38 140.51 71.57 148.33 79.39C156.15 87.21 162.34 96.4 166.9 106.97C171.46 117.54 173.74 128.83 173.74 140.85C173.74 152.87 171.46 164.16 166.9 174.73C162.34 185.3 156.15 194.49 148.33 202.31C140.51 210.13 131.32 216.32 120.75 220.88C110.18 225.44 98.8899 227.72 86.8699 227.72ZM86.8699 206C104.97 206 120.35 199.67 133.02 187C145.69 174.33 152.02 158.95 152.02 140.85C152.02 122.75 145.69 107.37 133.02 94.7C120.35 82.03 104.97 75.7 86.8699 75.7C68.7699 75.7 53.39 82.03 40.72 94.7C28.05 107.37 21.72 122.75 21.72 140.85C21.72 158.95 28.05 174.33 40.72 187C53.39 199.67 68.7699 206 86.8699 206ZM86.8699 192.97C72.3899 192.97 60.08 187.9 49.95 177.77C39.81 167.63 34.7502 155.33 34.7502 140.85C34.7502 126.37 39.82 114.06 49.95 103.93C60.09 93.79 72.3899 88.7299 86.8699 88.7299C101.35 88.7299 113.66 93.8 123.79 103.93C133.93 114.07 138.99 126.37 138.99 140.85C138.99 155.33 133.92 167.64 123.79 177.77C113.65 187.91 101.35 192.97 86.8699 192.97ZM69.49 171.25L117.27 140.84L69.49 110.43V171.24V171.25Z" fill="currentColor"/>
    </svg>


<svg viewBox="0 0 22 22" id="verified" aria-label="Verifizierter Account"><g><path d="M20.396 11c-.018-.646-.215-1.275-.57-1.816-.354-.54-.852-.972-1.438-1.246.223-.607.27-1.264.14-1.897-.131-.634-.437-1.218-.882-1.687-.47-.445-1.053-.75-1.687-.882-.633-.13-1.29-.083-1.897.14-.273-.587-.704-1.086-1.245-1.44S11.647 1.62 11 1.604c-.646.017-1.273.213-1.813.568s-.969.854-1.24 1.44c-.608-.223-1.267-.272-1.902-.14-.635.13-1.22.436-1.69.882-.445.47-.749 1.055-.878 1.688-.13.633-.08 1.29.144 1.896-.587.274-1.087.705-1.443 1.245-.356.54-.555 1.17-.574 1.817.02.647.218 1.276.574 1.817.356.54.856.972 1.443 1.245-.224.606-.274 1.263-.144 1.896.13.634.433 1.218.877 1.688.47.443 1.054.747 1.687.878.633.132 1.29.084 1.897-.136.274.586.705 1.084 1.246 1.439.54.354 1.17.551 1.816.569.647-.016 1.276-.213 1.817-.567s.972-.854 1.245-1.44c.604.239 1.266.296 1.903.164.636-.132 1.22-.447 1.68-.907.46-.46.776-1.044.908-1.681s.075-1.299-.165-1.903c.586-.274 1.084-.705 1.439-1.246.354-.54.551-1.17.569-1.816zM9.662 14.85l-3.429-3.428 1.293-1.302 2.072 2.072 4.4-4.794 1.347 1.246z" fill="#1d9bf0"></path></g></svg>

  </defs>
</svg>
