{
  "accessors": [
    {
      "bufferView": 2,
      "componentType": 5126,
      "count": 4771,
      "max": [
        0.9904199838638306,
        0.9904199838638306,
        0.9990000128746033
      ],
      "min": [
        -0.9904199838638306,
        -0.9904199838638306,
        -1.4468899965286255
      ],
      "type": "VEC3"
    },
    {
      "bufferView": 2,
      "byteOffset": 57252,
      "componentType": 5126,
      "count": 4771,
      "max": [
        0.9999999403953552,
        0.9999999403953552,
        1.0
      ],
      "min": [
        -0.9999999403953552,
        -0.9999999403953552,
        -1.0
      ],
      "type": "VEC3"
    },
    {
      "bufferView": 1,
      "componentType": 5126,
      "count": 4771,
      "max": [
        1.0,
        1.0
      ],
      "min": [
        0.0,
        0.0
      ],
      "type": "VEC2"
    },
    {
      "bufferView": 0,
      "componentType": 5125,
      "count": 13248,
      "type": "SCALAR"
    },
    {
      "bufferView": 2,
      "byteOffset": 114504,
      "componentType": 5126,
      "count": 4771,
      "max": [
        0.8485299944877625,
        0.9968100190162659,
        0.8561199903488159
      ],
      "min": [
        -0.9482700228691101,
        -0.7999799847602844,
        -1.362529993057251
      ],
      "type": "VEC3"
    },
    {
      "bufferView": 2,
      "byteOffset": 171756,
      "componentType": 5126,
      "count": 4771,
      "max": [
        0.9999999403953552,
        0.9999999403953552,
        1.0
      ],
      "min": [
        -0.9999999403953552,
        -0.9999999403953552,
        -1.0
      ],
      "type": "VEC3"
    },
    {
      "bufferView": 1,
      "byteOffset": 38168,
      "componentType": 5126,
      "count": 4771,
      "max": [
        1.0,
        1.0
      ],
      "min": [
        0.0,
        0.0
      ],
      "type": "VEC2"
    },
    {
      "bufferView": 0,
      "byteOffset": 52992,
      "componentType": 5125,
      "count": 13248,
      "type": "SCALAR"
    },
    {
      "bufferView": 2,
      "byteOffset": 229008,
      "componentType": 5126,
      "count": 4771,
      "max": [
        0.9904199838638306,
        0.9904199838638306,
        0.9990000128746033
      ],
      "min": [
        -0.9904199838638306,
        -0.9904199838638306,
        -1.4468899965286255
      ],
      "type": "VEC3"
    },
    {
      "bufferView": 2,
      "byteOffset": 286260,
      "componentType": 5126,
      "count": 4771,
      "max": [
        0.9999999403953552,
        0.9999999403953552,
        1.0
      ],
      "min": [
        -0.9999999403953552,
        -0.9999999403953552,
        -1.0
      ],
      "type": "VEC3"
    },
    {
      "bufferView": 1,
      "byteOffset": 76336,
      "componentType": 5126,
      "count": 4771,
      "max": [
        1.0,
        1.0
      ],
      "min": [
        0.0,
        0.0
      ],
      "type": "VEC2"
    },
    {
      "bufferView": 0,
      "byteOffset": 105984,
      "componentType": 5125,
      "count": 13248,
      "type": "SCALAR"
    },
    {
      "bufferView": 2,
      "byteOffset": 343512,
      "componentType": 5126,
      "count": 4771,
      "max": [
        0.9904199838638306,
        0.9904199838638306,
        0.9990000128746033
      ],
      "min": [
        -0.9904199838638306,
        -0.9904199838638306,
        -1.4468899965286255
      ],
      "type": "VEC3"
    },
    {
      "bufferView": 2,
      "byteOffset": 400764,
      "componentType": 5126,
      "count": 4771,
      "max": [
        0.9999999403953552,
        0.9999999403953552,
        1.0
      ],
      "min": [
        -0.9999999403953552,
        -0.9999999403953552,
        -1.0
      ],
      "type": "VEC3"
    },
    {
      "bufferView": 1,
      "byteOffset": 114504,
      "componentType": 5126,
      "count": 4771,
      "max": [
        1.0,
        1.0
      ],
      "min": [
        0.0,
        0.0
      ],
      "type": "VEC2"
    },
    {
      "bufferView": 0,
      "byteOffset": 158976,
      "componentType": 5125,
      "count": 13248,
      "type": "SCALAR"
    },
    {
      "bufferView": 2,
      "byteOffset": 458016,
      "componentType": 5126,
      "count": 4771,
      "max": [
        0.9904199838638306,
        0.9904199838638306,
        0.9990000128746033
      ],
      "min": [
        -0.9904199838638306,
        -0.9904199838638306,
        -1.4468899965286255
      ],
      "type": "VEC3"
    },
    {
      "bufferView": 2,
      "byteOffset": 515268,
      "componentType": 5126,
      "count": 4771,
      "max": [
        0.9999999403953552,
        0.9999999403953552,
        1.0
      ],
      "min": [
        -0.9999999403953552,
        -0.9999999403953552,
        -1.0
      ],
      "type": "VEC3"
    },
    {
      "bufferView": 1,
      "byteOffset": 152672,
      "componentType": 5126,
      "count": 4771,
      "max": [
        1.0,
        1.0
      ],
      "min": [
        0.0,
        0.0
      ],
      "type": "VEC2"
    },
    {
      "bufferView": 0,
      "byteOffset": 211968,
      "componentType": 5125,
      "count": 13248,
      "type": "SCALAR"
    },
    {
      "bufferView": 3,
      "componentType": 5126,
      "count": 2,
      "max": [
        3.333329916000366
      ],
      "min": [
        0.0
      ],
      "type": "SCALAR"
    },
    {
      "bufferView": 4,
      "componentType": 5126,
      "count": 2,
      "max": [
        0.0,
        0.0,
        0.0
      ],
      "min": [
        0.0,
        0.0,
        0.0
      ],
      "type": "VEC3"
    },
    {
      "bufferView": 3,
      "byteOffset": 8,
      "componentType": 5126,
      "count": 81,
      "max": [
        3.333329916000366
      ],
      "min": [
        0.0
      ],
      "type": "SCALAR"
    },
    {
      "bufferView": 5,
      "componentType": 5126,
      "count": 81,
      "max": [
        0.0,
        0.0,
        1.0,
        1.0
      ],
      "min": [
        0.0,
        0.0,
        -0.9991999864578247,
        -0.0
      ],
      "type": "VEC4"
    },
    {
      "bufferView": 3,
      "byteOffset": 332,
      "componentType": 5126,
      "count": 2,
      "max": [
        3.333329916000366
      ],
      "min": [
        0.0
      ],
      "type": "SCALAR"
    },
    {
      "bufferView": 4,
      "byteOffset": 24,
      "componentType": 5126,
      "count": 2,
      "max": [
        1.0,
        1.0,
        1.0
      ],
      "min": [
        1.0,
        1.0,
        1.0
      ],
      "type": "VEC3"
    }
  ],
  "animations": [
    {
      "channels": [
        {
          "sampler": 0,
          "target": {
            "node": 4,
            "path": "translation"
          }
        },
        {
          "sampler": 1,
          "target": {
            "node": 4,
            "path": "rotation"
          }
        },
        {
          "sampler": 2,
          "target": {
            "node": 4,
            "path": "scale"
          }
        }
      ],
      "name": "balloon groupAction.001",
      "samplers": [
        {
          "input": 20,
          "interpolation": "LINEAR",
          "output": 21
        },
        {
          "input": 22,
          "interpolation": "LINEAR",
          "output": 23
        },
        {
          "input": 24,
          "interpolation": "LINEAR",
          "output": 25
        }
      ]
    }
  ],
  "asset": {
    "extras": {
      "author": "1catalogue (https://sketchfab.com/1catalogue)",
      "license": "CC-BY-4.0 (http://creativecommons.org/licenses/by/4.0/)",
      "source": "https://sketchfab.com/3d-models/balloons-01a4d229631e4aab866e236968881241",
      "title": "Balloons"
    },
    "generator": "Sketchfab-12.65.0",
    "version": "2.0"
  },
  "bufferViews": [
    {
      "buffer": 0,
      "byteLength": 264960,
      "name": "floatBufferViews",
      "target": 34963
    },
    {
      "buffer": 0,
      "byteLength": 190840,
      "byteOffset": 264960,
      "byteStride": 8,
      "name": "floatBufferViews",
      "target": 34962
    },
    {
      "buffer": 0,
      "byteLength": 572520,
      "byteOffset": 455800,
      "byteStride": 12,
      "name": "floatBufferViews",
      "target": 34962
    },
    {
      "buffer": 0,
      "byteLength": 340,
      "byteOffset": 1028320,
      "name": "floatBufferViews"
    },
    {
      "buffer": 0,
      "byteLength": 48,
      "byteOffset": 1028660,
      "byteStride": 12,
      "name": "floatBufferViews"
    },
    {
      "buffer": 0,
      "byteLength": 1296,
      "byteOffset": 1028708,
      "byteStride": 16,
      "name": "floatBufferViews"
    }
  ],
  "buffers": [
    {
      "byteLength": 1030004,
      "uri": "scene.bin"
    }
  ],
  "materials": [
    {
      "alphaMode": "BLEND",
      "doubleSided": true,
      "name": "Material.004",
      "pbrMetallicRoughness": {
        "baseColorFactor": [
          0.7805629372596741,
          0.06568038463592529,
          0.8000000715255737,
          0.81
        ],
        "metallicFactor": 0.5700000000000001,
        "roughnessFactor": 0.35000000000000003
      }
    },
    {
      "alphaMode": "BLEND",
      "doubleSided": true,
      "name": "Material.003",
      "pbrMetallicRoughness": {
        "baseColorFactor": [
          0.11002318561077114,
          0.8000000715255737,
          0.1032832637429237,
          0.78
        ],
        "metallicFactor": 0.6900000000000001,
        "roughnessFactor": 0.37
      }
    },
    {
      "alphaMode": "BLEND",
      "doubleSided": true,
      "name": "Material.002",
      "pbrMetallicRoughness": {
        "baseColorFactor": [
          0.08098259568214422,
          0.21757958829402943,
          0.8000000715255737,
          0.79
        ],
        "metallicFactor": 0.65,
        "roughnessFactor": 0.29
      }
    },
    {
      "alphaMode": "BLEND",
      "doubleSided": true,
      "name": "Material",
      "pbrMetallicRoughness": {
        "baseColorFactor": [
          0.8000000715255737,
          0.5884372591972347,
          0.06422112137079235,
          0.77
        ],
        "metallicFactor": 0.66,
        "roughnessFactor": 0.36
      }
    },
    {
      "alphaMode": "BLEND",
      "doubleSided": true,
      "name": "Material.001",
      "pbrMetallicRoughness": {
        "baseColorFactor": [
          0.8000000715255737,
          0.06257808208465578,
          0.07351763546466832,
          0.8
        ],
        "metallicFactor": 0.64,
        "roughnessFactor": 0.35000000000000003
      }
    }
  ],
  "meshes": [
    {
      "name": "Sphere.004_0",
      "primitives": [
        {
          "attributes": {
            "NORMAL": 1,
            "POSITION": 0,
            "TEXCOORD_0": 2
          },
          "indices": 3,
          "material": 0,
          "mode": 4
        }
      ]
    },
    {
      "name": "Sphere.003_0",
      "primitives": [
        {
          "attributes": {
            "NORMAL": 5,
            "POSITION": 4,
            "TEXCOORD_0": 6
          },
          "indices": 7,
          "material": 1,
          "mode": 4
        }
      ]
    },
    {
      "name": "Sphere.002_0",
      "primitives": [
        {
          "attributes": {
            "NORMAL": 9,
            "POSITION": 8,
            "TEXCOORD_0": 10
          },
          "indices": 11,
          "material": 2,
          "mode": 4
        }
      ]
    },
    {
      "name": "Sphere.001_0",
      "primitives": [
        {
          "attributes": {
            "NORMAL": 13,
            "POSITION": 12,
            "TEXCOORD_0": 14
          },
          "indices": 15,
          "material": 3,
          "mode": 4
        }
      ]
    },
    {
      "name": "Sphere_0",
      "primitives": [
        {
          "attributes": {
            "NORMAL": 17,
            "POSITION": 16,
            "TEXCOORD_0": 18
          },
          "indices": 19,
          "material": 4,
          "mode": 4
        }
      ]
    }
  ],
  "nodes": [
    {
      "children": [
        1
      ],
      "matrix": [
        0.6124943494796753,
        0.0,
        0.0,
        0.0,
        0.0,
        1.3600106584902856e-16,
        -0.6124943494796753,
        0.0,
        0.0,
        0.6124943494796753,
        1.3600106584902856e-16,
        0.0,
        0.0,
        0.0,
        0.0,
        1.0
      ],
      "name": "Sketchfab_model"
    },
    {
      "children": [
        2,
        4
      ],
      "name": "Root"
    },
    {
      "children": [
        3
      ],
      "matrix": [
        -0.29086000000000006,
        0.9551700000000001,
        -0.05519000000000001,
        0.0,
        -0.7711,
        -0.19988000000000003,
        0.6045200000000001,
        0.0,
        0.5663900000000001,
        0.21839000000000003,
        0.7946700000000001,
        0.0,
        4.076250000000001,
        1.00545,
        5.903860000000001,
        1.0
      ],
      "name": "Lamp"
    },
    {
      "name": "Lamp"
    },
    {
      "children": [
        5,
        7,
        9,
        11,
        13
      ],
      "name": "balloon group"
    },
    {
      "children": [
        6
      ],
      "matrix": [
        0.9638400000000001,
        0.0,
        -0.03230000000000001,
        0.0,
        -0.0,
        0.96438,
        0.0,
        0.0,
        0.03230000000000001,
        0.0,
        0.9638400000000001,
        0.0,
        0.15345000000000003,
        -0.016800000000000002,
        1.48968,
        1.0
      ],
      "name": "Sphere.004"
    },
    {
      "mesh": 0,
      "name": "Sphere.004_0"
    },
    {
      "children": [
        8
      ],
      "matrix": [
        0.85133,
        -0.52073,
        -0.06385,
        0.0,
        0.5204799999999999,
        0.8230500000000001,
        0.22736000000000003,
        0.0,
        -0.06584000000000001,
        -0.22679000000000005,
        0.97172,
        0.0,
        -0.10948000000000001,
        -1.39394,
        -0.22443000000000005,
        1.0
      ],
      "name": "Sphere.003"
    },
    {
      "mesh": 1,
      "name": "Sphere.003_0"
    },
    {
      "children": [
        10
      ],
      "matrix": [
        0.9490000000000001,
        -0.0,
        0.18727000000000002,
        0.0,
        0.0,
        0.9673,
        0.0,
        0.0,
        -0.18727000000000002,
        0.0,
        0.9490000000000001,
        0.0,
        -1.4107899999999998,
        0.03417000000000001,
        0.21991000000000005,
        1.0
      ],
      "name": "Sphere.002"
    },
    {
      "mesh": 2,
      "name": "Sphere.002_0"
    },
    {
      "children": [
        12
      ],
      "matrix": [
        0.8877700000000002,
        0.011700000000000004,
        -0.0017200000000000006,
        0.0,
        -0.011820000000000002,
        0.8781400000000001,
        -0.13042,
        0.0,
        -2.000000000000001e-05,
        0.13043000000000002,
        0.87821,
        0.0,
        0.04920000000000001,
        1.04418,
        -0.42404000000000003,
        1.0
      ],
      "name": "Sphere.001"
    },
    {
      "mesh": 3,
      "name": "Sphere.001_0"
    },
    {
      "children": [
        14
      ],
      "matrix": [
        0.90195,
        -0.0022700000000000007,
        -0.09939000000000003,
        0.0,
        0.017360000000000007,
        0.8968200000000002,
        0.13712,
        0.0,
        0.09788000000000002,
        -0.13819,
        0.8914700000000001,
        0.0,
        1.37978,
        -0.21941000000000005,
        -0.06657000000000002,
        1.0
      ],
      "name": "Sphere"
    },
    {
      "mesh": 4,
      "name": "Sphere_0"
    }
  ],
  "scene": 0,
  "scenes": [
    {
      "name": "Sketchfab_Scene",
      "nodes": [
        0
      ]
    }
  ]
}
