<svg width="1920" height="1080" viewBox="0 0 1920 1080" fill="none" xmlns="http://www.w3.org/2000/svg">
<g clip-path="url(#clip0_2187_9265)">
<rect width="1920" height="1080" fill="url(#paint0_linear_2187_9265)"/>
<g filter="url(#filter0_f_2187_9265)">
<path d="M2337.04 27.5431C2212.14 -632.166 1000.88 -1082.83 569.049 -502.015C217.246 269.169 1294.44 -90.7952 1464.73 161.252C1635.02 413.299 2493.17 852.179 2337.04 27.5431Z" fill="#35D0C6" fill-opacity="0.5"/>
</g>
<g filter="url(#filter1_f_2187_9265)">
<path d="M2110.69 -42.7247C2111.03 -468.904 1839.93 -871.422 1501.78 -560.458C1190.96 -121.298 1347.87 -107.723 1536.41 -21.0764C1711.85 59.5455 2110.25 489.999 2110.69 -42.7247Z" fill="#E9B9B9"/>
</g>
<g filter="url(#filter2_f_2187_9265)">
<path d="M1196.09 586.104C1122.79 151.947 569.718 367.594 351.231 586.103C-109.956 1047.34 339.994 1126.24 469.182 1305.1C548.017 1414.25 1193.39 1483.38 1533.35 1271.16C1750.49 1135.62 1279.28 1078.89 1196.09 586.104Z" fill="#1F3C94"/>
</g>
<g filter="url(#filter3_f_2187_9265)">
<path d="M-10.9013 1165.17C111.184 1002.99 129.462 874.731 253.52 784.62C419.362 664.158 541.168 566.65 355.716 265.424C268.879 124.378 211.047 -17.2203 -167.053 18.5121C-817.386 79.9721 -295.541 548.97 -243.811 1115.08C-218.441 1392.72 -53.8473 1222.23 -10.9013 1165.17Z" fill="#1490F8"/>
</g>
<g filter="url(#filter4_f_2187_9265)">
<path d="M133.087 -49.1485C-193.894 -454.773 -542.174 35.3035 -675.441 331.045C-645.443 995.553 -359.594 753.379 -147.94 861.485C63.7135 969.59 541.813 457.883 133.087 -49.1485Z" fill="#47AFE6"/>
</g>
<g filter="url(#filter5_f_2187_9265)">
<path d="M1507.33 547.411C1486.03 57.9328 841.582 230.798 522.023 378.415C101.016 895.585 522.023 874.205 639.955 1074.76C757.888 1275.32 1533.96 1159.26 1507.33 547.411Z" fill="#063359"/>
</g>
</g>
<defs>
<filter id="filter0_f_2187_9265" x="-1.09766" y="-1269.7" width="2857.03" height="2275.51" filterUnits="userSpaceOnUse" color-interpolation-filters="sRGB">
<feFlood flood-opacity="0" result="BackgroundImageFix"/>
<feBlend mode="normal" in="SourceGraphic" in2="BackgroundImageFix" result="shape"/>
<feGaussianBlur stdDeviation="250" result="effect1_foregroundBlur_2187_9265"/>
</filter>
<filter id="filter1_f_2187_9265" x="970.29" y="-1025.69" width="1495.4" height="1600.22" filterUnits="userSpaceOnUse" color-interpolation-filters="sRGB">
<feFlood flood-opacity="0" result="BackgroundImageFix"/>
<feBlend mode="normal" in="SourceGraphic" in2="BackgroundImageFix" result="shape"/>
<feGaussianBlur stdDeviation="177.5" result="effect1_foregroundBlur_2187_9265"/>
</filter>
<filter id="filter2_f_2187_9265" x="-352" y="-165" width="2442" height="2074" filterUnits="userSpaceOnUse" color-interpolation-filters="sRGB">
<feFlood flood-opacity="0" result="BackgroundImageFix"/>
<feBlend mode="normal" in="SourceGraphic" in2="BackgroundImageFix" result="shape"/>
<feGaussianBlur stdDeviation="250" result="effect1_foregroundBlur_2187_9265"/>
</filter>
<filter id="filter3_f_2187_9265" x="-1090.78" y="-587.085" width="2139.61" height="2456.45" filterUnits="userSpaceOnUse" color-interpolation-filters="sRGB">
<feFlood flood-opacity="0" result="BackgroundImageFix"/>
<feBlend mode="normal" in="SourceGraphic" in2="BackgroundImageFix" result="shape"/>
<feGaussianBlur stdDeviation="300" result="effect1_foregroundBlur_2187_9265"/>
</filter>
<filter id="filter4_f_2187_9265" x="-1175.44" y="-703.272" width="1968.6" height="2079.34" filterUnits="userSpaceOnUse" color-interpolation-filters="sRGB">
<feFlood flood-opacity="0" result="BackgroundImageFix"/>
<feBlend mode="normal" in="SourceGraphic" in2="BackgroundImageFix" result="shape"/>
<feGaussianBlur stdDeviation="250" result="effect1_foregroundBlur_2187_9265"/>
</filter>
<filter id="filter5_f_2187_9265" x="-411" y="-526" width="2669" height="2441" filterUnits="userSpaceOnUse" color-interpolation-filters="sRGB">
<feFlood flood-opacity="0" result="BackgroundImageFix"/>
<feBlend mode="normal" in="SourceGraphic" in2="BackgroundImageFix" result="shape"/>
<feGaussianBlur stdDeviation="375" result="effect1_foregroundBlur_2187_9265"/>
</filter>
<linearGradient id="paint0_linear_2187_9265" x1="126.5" y1="18.5" x2="1756.5" y2="1063" gradientUnits="userSpaceOnUse">
<stop stop-color="#0C65C1"/>
<stop offset="1" stop-color="#06305B"/>
</linearGradient>
<clipPath id="clip0_2187_9265">
<rect width="1920" height="1080" fill="white"/>
</clipPath>
</defs>
</svg>
