<svg width="20" height="20" viewBox="0 0 20 20" fill="none" xmlns="http://www.w3.org/2000/svg">
<path d="M18 0H2C0.9 0 0.00999999 0.9 0.00999999 2L0 18C0 19.1 0.9 20 2 20H18C19.1 20 20 19.1 20 18V2C20 0.9 19.1 0 18 0ZM15.71 7.33C15.65 11.95 12.69 15.11 8.29 15.31C6.47 15.39 5.15 14.81 4.01 14.08C5.35 14.29 7.02 13.76 7.91 12.99C6.59 12.86 5.81 12.19 5.45 11.11C5.83 11.18 6.23 11.16 6.59 11.08C5.4 10.68 4.55 9.95 4.51 8.41C4.84 8.56 5.19 8.7 5.65 8.73C4.75 8.23 4.1 6.38 4.85 5.16C6.17 6.61 7.76 7.79 10.37 7.95C9.72 5.15 13.43 3.63 14.98 5.51C15.64 5.38 16.17 5.13 16.68 4.86C16.47 5.51 16.06 5.96 15.56 6.33C16.1 6.26 16.59 6.12 17 5.92C16.75 6.45 16.19 6.93 15.71 7.33Z" fill="#5F6368"/>
</svg>
