<svg width="78" height="27" viewBox="0 0 78 27" fill="none" xmlns="http://www.w3.org/2000/svg">
<path d="M10.0798 20.384C8.71985 20.384 7.43985 20.128 6.23984 19.616C5.03984 19.104 3.97584 18.4 3.04784 17.504C2.13584 16.592 1.41584 15.544 0.887845 14.36C0.359845 13.176 0.0958446 11.904 0.0958446 10.544C0.0958446 9.184 0.359845 7.912 0.887845 6.728C1.41584 5.544 2.13584 4.504 3.04784 3.608C3.97584 2.696 5.03984 1.984 6.23984 1.472C7.43985 0.96 8.71985 0.704 10.0798 0.704C11.5838 0.704 12.8798 0.967999 13.9678 1.496C15.0718 2.008 16.0238 2.648 16.8238 3.416L14.9278 5.312C14.3518 4.768 13.6638 4.312 12.8638 3.944C12.0798 3.576 11.1518 3.392 10.0798 3.392C9.08785 3.392 8.15985 3.576 7.29584 3.944C6.44784 4.312 5.70384 4.824 5.06384 5.48C4.42384 6.136 3.91984 6.896 3.55184 7.76C3.19984 8.624 3.02384 9.552 3.02384 10.544C3.02384 11.536 3.19984 12.464 3.55184 13.328C3.91984 14.192 4.42384 14.952 5.06384 15.608C5.70384 16.264 6.44784 16.776 7.29584 17.144C8.15985 17.512 9.08785 17.696 10.0798 17.696C11.3598 17.696 12.3918 17.488 13.1758 17.072C13.9598 16.64 14.5838 16.192 15.0478 15.728C15.4318 15.344 15.7438 14.872 15.9838 14.312C16.2398 13.752 16.4158 13.096 16.5118 12.344H10.0798V9.656H19.1278C19.2238 10.136 19.2718 10.696 19.2718 11.336C19.2718 12.008 19.1998 12.72 19.0558 13.472C18.9118 14.208 18.6718 14.936 18.3358 15.656C17.9998 16.376 17.5358 17.032 16.9438 17.624C16.0798 18.52 15.0878 19.208 13.9678 19.688C12.8478 20.152 11.5518 20.384 10.0798 20.384ZM26.5918 20.384C25.4238 20.384 24.3598 20.112 23.3998 19.568C22.4398 19.008 21.6718 18.256 21.0958 17.312C20.5198 16.352 20.2318 15.264 20.2318 14.048C20.2318 12.816 20.5198 11.728 21.0958 10.784C21.6718 9.824 22.4398 9.072 23.3998 8.528C24.3598 7.984 25.4238 7.712 26.5918 7.712C27.7598 7.712 28.8238 7.984 29.7838 8.528C30.7438 9.072 31.5118 9.824 32.0878 10.784C32.6638 11.728 32.9518 12.816 32.9518 14.048C32.9518 15.264 32.6638 16.352 32.0878 17.312C31.5118 18.256 30.7438 19.008 29.7838 19.568C28.8238 20.112 27.7598 20.384 26.5918 20.384ZM26.5918 17.888C27.2318 17.888 27.8238 17.728 28.3678 17.408C28.9118 17.072 29.3438 16.616 29.6638 16.04C29.9998 15.464 30.1678 14.8 30.1678 14.048C30.1678 13.28 29.9998 12.608 29.6638 12.032C29.3438 11.456 28.9118 11.008 28.3678 10.688C27.8238 10.368 27.2318 10.208 26.5918 10.208C25.9518 10.208 25.3598 10.368 24.8158 10.688C24.2718 11.008 23.8318 11.456 23.4958 12.032C23.1758 12.608 23.0158 13.28 23.0158 14.048C23.0158 14.8 23.1758 15.464 23.4958 16.04C23.8318 16.616 24.2718 17.072 24.8158 17.408C25.3598 17.728 25.9518 17.888 26.5918 17.888ZM40.4638 20.384C39.2958 20.384 38.2318 20.112 37.2718 19.568C36.3118 19.008 35.5438 18.256 34.9678 17.312C34.3918 16.352 34.1038 15.264 34.1038 14.048C34.1038 12.816 34.3918 11.728 34.9678 10.784C35.5438 9.824 36.3118 9.072 37.2718 8.528C38.2318 7.984 39.2958 7.712 40.4638 7.712C41.6318 7.712 42.6958 7.984 43.6558 8.528C44.6158 9.072 45.3838 9.824 45.9598 10.784C46.5358 11.728 46.8238 12.816 46.8238 14.048C46.8238 15.264 46.5358 16.352 45.9598 17.312C45.3838 18.256 44.6158 19.008 43.6558 19.568C42.6958 20.112 41.6318 20.384 40.4638 20.384ZM40.4638 17.888C41.1038 17.888 41.6958 17.728 42.2398 17.408C42.7838 17.072 43.2158 16.616 43.5358 16.04C43.8718 15.464 44.0398 14.8 44.0398 14.048C44.0398 13.28 43.8718 12.608 43.5358 12.032C43.2158 11.456 42.7838 11.008 42.2398 10.688C41.6958 10.368 41.1038 10.208 40.4638 10.208C39.8238 10.208 39.2318 10.368 38.6878 10.688C38.1438 11.008 37.7038 11.456 37.3678 12.032C37.0478 12.608 36.8878 13.28 36.8878 14.048C36.8878 14.8 37.0478 15.464 37.3678 16.04C37.7038 16.616 38.1438 17.072 38.6878 17.408C39.2318 17.728 39.8238 17.888 40.4638 17.888ZM54.0958 26.072C53.0718 26.072 52.1838 25.872 51.4318 25.472C50.6798 25.088 50.0558 24.608 49.5598 24.032C49.0798 23.456 48.7198 22.888 48.4798 22.328L50.9038 21.32C51.0478 21.656 51.2558 22 51.5278 22.352C51.8158 22.704 52.1758 22.992 52.6078 23.216C53.0398 23.456 53.5358 23.576 54.0958 23.576C55.1358 23.576 55.9598 23.256 56.5678 22.616C57.1758 21.992 57.4798 21.072 57.4798 19.856V18.944H57.3839C57.0798 19.328 56.6318 19.664 56.0398 19.952C55.4638 20.24 54.7998 20.384 54.0478 20.384C53.2638 20.384 52.5038 20.224 51.7678 19.904C51.0478 19.584 50.3998 19.136 49.8238 18.56C49.2478 17.984 48.7918 17.312 48.4558 16.544C48.1358 15.776 47.9758 14.952 47.9758 14.072C47.9758 13.176 48.1358 12.344 48.4558 11.576C48.7918 10.808 49.2478 10.136 49.8238 9.56C50.3998 8.968 51.0478 8.512 51.7678 8.192C52.5038 7.872 53.2638 7.712 54.0478 7.712C54.7998 7.712 55.4638 7.856 56.0398 8.144C56.6318 8.432 57.0798 8.76 57.3839 9.128H57.4798V8.096H60.1198V19.472C60.1198 21.024 59.8398 22.288 59.2799 23.264C58.7358 24.24 58.0078 24.952 57.0958 25.4C56.1838 25.848 55.1838 26.072 54.0958 26.072ZM54.2878 17.888C54.9278 17.888 55.4958 17.728 55.9918 17.408C56.5038 17.072 56.9118 16.616 57.2158 16.04C57.5198 15.464 57.6718 14.808 57.6718 14.072C57.6718 13.32 57.5198 12.656 57.2158 12.08C56.9118 11.504 56.5038 11.048 55.9918 10.712C55.4958 10.376 54.9278 10.208 54.2878 10.208C53.6478 10.208 53.0558 10.376 52.5118 10.712C51.9838 11.048 51.5598 11.504 51.2398 12.08C50.9198 12.656 50.7598 13.32 50.7598 14.072C50.7598 14.808 50.9198 15.464 51.2398 16.04C51.5598 16.616 51.9838 17.072 52.5118 17.408C53.0558 17.728 53.6478 17.888 54.2878 17.888ZM62.0399 20V1.376H64.8238V20H62.0399ZM69.3598 15.968C69.3758 16 69.3998 16.032 69.4318 16.064C69.7678 16.672 70.2078 17.128 70.7518 17.432C71.2958 17.736 71.8638 17.888 72.4559 17.888C73.1598 17.888 73.7678 17.728 74.2799 17.408C74.7918 17.088 75.2238 16.664 75.5758 16.136L77.7358 17.576C77.5118 17.912 77.1678 18.304 76.7038 18.752C76.2398 19.184 75.6558 19.568 74.9518 19.904C74.2638 20.224 73.4318 20.384 72.4559 20.384C71.2558 20.384 70.1838 20.104 69.2398 19.544C68.2958 18.984 67.5438 18.224 66.9838 17.264C66.4398 16.304 66.1678 15.232 66.1678 14.048C66.1678 12.784 66.4398 11.68 66.9838 10.736C67.5278 9.792 68.2479 9.056 69.1439 8.528C70.0558 7.984 71.0558 7.712 72.1439 7.712C72.9598 7.712 73.6798 7.856 74.3038 8.144C74.9278 8.416 75.4558 8.768 75.8878 9.2C76.3198 9.632 76.6718 10.08 76.9438 10.544C77.2318 10.992 77.4398 11.392 77.5678 11.744L77.8558 12.464L69.3598 15.968ZM68.9039 13.856L74.5919 11.504C74.4319 11.104 74.1358 10.784 73.7038 10.544C73.2878 10.288 72.7998 10.16 72.2398 10.16C71.7598 10.16 71.2638 10.296 70.7518 10.568C70.2398 10.84 69.8078 11.248 69.4559 11.792C69.0879 12.352 68.9039 13.04 68.9039 13.856Z" fill="#9AA0A6"/>
</svg>
